<mxfile host="app.diagrams.net" modified="2023-01-30T07:51:55.824Z" agent="5.0 (Macintosh; Intel Mac OS X 10_15_7) AppleWebKit/537.36 (KHTML, like Gecko) Chrome/109.0.0.0 Safari/537.36" etag="CEl49NQKuxQk_Nh1vCVu" version="20.8.3" type="github">
  <diagram id="H3SxZ43efbbaYmBA8pNz" name="第 1 页">
    <mxGraphModel dx="420" dy="643" grid="1" gridSize="10" guides="1" tooltips="1" connect="1" arrows="1" fold="1" page="1" pageScale="1" pageWidth="827" pageHeight="1169" math="0" shadow="0">
      <root>
        <mxCell id="0" />
        <mxCell id="1" parent="0" />
        <mxCell id="K7jrmlSnKd5e08-iuxen-1" value="All Features Embedding" style="rounded=0;whiteSpace=wrap;html=1;fillColor=#fff2cc;strokeColor=#d6b656;gradientColor=#ffd966;" parent="1" vertex="1">
          <mxGeometry x="863" y="430" width="360" height="20" as="geometry" />
        </mxCell>
        <mxCell id="K7jrmlSnKd5e08-iuxen-86" value="" style="group" parent="1" vertex="1" connectable="0">
          <mxGeometry x="1123" y="600.8299999999999" width="95" height="151.94000000000017" as="geometry" />
        </mxCell>
        <mxCell id="K7jrmlSnKd5e08-iuxen-103" value="" style="endArrow=classic;html=1;rounded=0;fontSize=11;edgeStyle=orthogonalEdgeStyle;strokeColor=#FF8000;entryX=0.75;entryY=1;entryDx=0;entryDy=0;" parent="K7jrmlSnKd5e08-iuxen-86" target="K7jrmlSnKd5e08-iuxen-319" edge="1">
          <mxGeometry width="50" height="50" relative="1" as="geometry">
            <mxPoint x="60" y="-70.82999999999993" as="sourcePoint" />
            <mxPoint x="53" y="10" as="targetPoint" />
            <Array as="points">
              <mxPoint x="20" y="-71" />
              <mxPoint x="20" y="30" />
              <mxPoint x="-190" y="30" />
              <mxPoint x="-190" y="10" />
            </Array>
          </mxGeometry>
        </mxCell>
        <mxCell id="K7jrmlSnKd5e08-iuxen-133" value="" style="shape=curlyBracket;whiteSpace=wrap;html=1;rounded=1;flipH=1;fontSize=22;strokeColor=#000000;fillColor=#000000;rotation=-90;size=0.5;" parent="K7jrmlSnKd5e08-iuxen-86" vertex="1">
          <mxGeometry x="50" y="6.940000000000168" width="20" height="50" as="geometry" />
        </mxCell>
        <mxCell id="K7jrmlSnKd5e08-iuxen-134" value="&lt;font style=&quot;font-size: 11px;&quot;&gt;concat&lt;/font&gt;" style="rounded=1;whiteSpace=wrap;html=1;fontSize=11;strokeColor=#000000;fillColor=none;" parent="K7jrmlSnKd5e08-iuxen-86" vertex="1">
          <mxGeometry x="37.5" y="-3.0599999999998317" width="45" height="20" as="geometry" />
        </mxCell>
        <mxCell id="K7jrmlSnKd5e08-iuxen-135" value="" style="group" parent="K7jrmlSnKd5e08-iuxen-86" vertex="1" connectable="0">
          <mxGeometry x="40" y="-26.82999999999983" width="40" height="10" as="geometry" />
        </mxCell>
        <mxCell id="K7jrmlSnKd5e08-iuxen-136" value="" style="rounded=0;whiteSpace=wrap;html=1;fontSize=22;strokeColor=none;fillColor=#CDA2BE;" parent="K7jrmlSnKd5e08-iuxen-135" vertex="1">
          <mxGeometry width="10" height="10" as="geometry" />
        </mxCell>
        <mxCell id="K7jrmlSnKd5e08-iuxen-137" style="edgeStyle=none;rounded=0;orthogonalLoop=1;jettySize=auto;html=1;exitX=1;exitY=1;exitDx=0;exitDy=0;fontSize=22;strokeColor=none;" parent="K7jrmlSnKd5e08-iuxen-135" source="K7jrmlSnKd5e08-iuxen-136" target="K7jrmlSnKd5e08-iuxen-136" edge="1">
          <mxGeometry relative="1" as="geometry" />
        </mxCell>
        <mxCell id="K7jrmlSnKd5e08-iuxen-138" value="" style="rounded=0;whiteSpace=wrap;html=1;fontSize=22;strokeColor=none;fillColor=#FFCE9F;" parent="K7jrmlSnKd5e08-iuxen-135" vertex="1">
          <mxGeometry x="10" width="10" height="10" as="geometry" />
        </mxCell>
        <mxCell id="K7jrmlSnKd5e08-iuxen-139" value="" style="rounded=0;whiteSpace=wrap;html=1;fontSize=22;strokeColor=none;fillColor=#CDA2BE;" parent="K7jrmlSnKd5e08-iuxen-135" vertex="1">
          <mxGeometry x="20" width="10" height="10" as="geometry" />
        </mxCell>
        <mxCell id="K7jrmlSnKd5e08-iuxen-140" value="" style="rounded=0;whiteSpace=wrap;html=1;fontSize=22;strokeColor=none;fillColor=#FFCE9F;" parent="K7jrmlSnKd5e08-iuxen-135" vertex="1">
          <mxGeometry x="30" width="10" height="10" as="geometry" />
        </mxCell>
        <mxCell id="K7jrmlSnKd5e08-iuxen-141" value="" style="rounded=0;whiteSpace=wrap;html=1;fontSize=22;strokeColor=none;fillColor=#CDA2BE;" parent="K7jrmlSnKd5e08-iuxen-86" vertex="1">
          <mxGeometry x="45" y="41.94000000000017" width="10" height="10" as="geometry" />
        </mxCell>
        <mxCell id="K7jrmlSnKd5e08-iuxen-142" value="" style="rounded=0;whiteSpace=wrap;html=1;fontSize=22;strokeColor=none;fillColor=#E6D0DE;" parent="K7jrmlSnKd5e08-iuxen-86" vertex="1">
          <mxGeometry x="45" y="51.94000000000017" width="10" height="10" as="geometry" />
        </mxCell>
        <mxCell id="K7jrmlSnKd5e08-iuxen-143" value="" style="rounded=0;whiteSpace=wrap;html=1;fontSize=22;strokeColor=none;fillColor=#CDA2BE;" parent="K7jrmlSnKd5e08-iuxen-86" vertex="1">
          <mxGeometry x="45" y="61.94000000000017" width="10" height="10" as="geometry" />
        </mxCell>
        <mxCell id="K7jrmlSnKd5e08-iuxen-144" value="" style="rounded=0;whiteSpace=wrap;html=1;fontSize=22;strokeColor=none;fillColor=#E6D0DE;" parent="K7jrmlSnKd5e08-iuxen-86" vertex="1">
          <mxGeometry x="45" y="71.94000000000017" width="10" height="10" as="geometry" />
        </mxCell>
        <mxCell id="K7jrmlSnKd5e08-iuxen-145" value="" style="rounded=0;whiteSpace=wrap;html=1;fontSize=22;strokeColor=none;fillColor=#FFB570;" parent="K7jrmlSnKd5e08-iuxen-86" vertex="1">
          <mxGeometry x="65" y="41.94000000000017" width="10" height="10" as="geometry" />
        </mxCell>
        <mxCell id="K7jrmlSnKd5e08-iuxen-146" value="" style="rounded=0;whiteSpace=wrap;html=1;fontSize=22;strokeColor=none;fillColor=#FFCE9F;" parent="K7jrmlSnKd5e08-iuxen-86" vertex="1">
          <mxGeometry x="65" y="51.94000000000017" width="10" height="10" as="geometry" />
        </mxCell>
        <mxCell id="K7jrmlSnKd5e08-iuxen-147" value="" style="rounded=0;whiteSpace=wrap;html=1;fontSize=22;strokeColor=none;fillColor=#FFB570;" parent="K7jrmlSnKd5e08-iuxen-86" vertex="1">
          <mxGeometry x="65" y="61.94000000000017" width="10" height="15" as="geometry" />
        </mxCell>
        <mxCell id="K7jrmlSnKd5e08-iuxen-148" value="" style="rounded=0;whiteSpace=wrap;html=1;fontSize=22;strokeColor=none;fillColor=#FFCE9F;" parent="K7jrmlSnKd5e08-iuxen-86" vertex="1">
          <mxGeometry x="65" y="71.94000000000017" width="10" height="10" as="geometry" />
        </mxCell>
        <mxCell id="K7jrmlSnKd5e08-iuxen-149" value="" style="ellipse;whiteSpace=wrap;html=1;aspect=fixed;fontSize=11;strokeColor=#000000;fillColor=none;" parent="K7jrmlSnKd5e08-iuxen-86" vertex="1">
          <mxGeometry x="45" y="106.94000000000017" width="10" height="10" as="geometry" />
        </mxCell>
        <mxCell id="K7jrmlSnKd5e08-iuxen-150" value="" style="ellipse;whiteSpace=wrap;html=1;aspect=fixed;fontSize=11;strokeColor=#000000;fillColor=none;" parent="K7jrmlSnKd5e08-iuxen-86" vertex="1">
          <mxGeometry x="65" y="106.94000000000017" width="10" height="10" as="geometry" />
        </mxCell>
        <mxCell id="K7jrmlSnKd5e08-iuxen-151" value="" style="endArrow=classic;html=1;rounded=0;fontSize=11;exitX=0.5;exitY=0;exitDx=0;exitDy=0;entryX=0.5;entryY=1;entryDx=0;entryDy=0;" parent="K7jrmlSnKd5e08-iuxen-86" source="K7jrmlSnKd5e08-iuxen-149" target="K7jrmlSnKd5e08-iuxen-144" edge="1">
          <mxGeometry width="50" height="50" relative="1" as="geometry">
            <mxPoint x="15" y="16.94000000000017" as="sourcePoint" />
            <mxPoint x="65" y="-33.05999999999983" as="targetPoint" />
          </mxGeometry>
        </mxCell>
        <mxCell id="K7jrmlSnKd5e08-iuxen-152" value="" style="endArrow=classic;html=1;rounded=0;fontSize=11;exitX=0.5;exitY=0;exitDx=0;exitDy=0;entryX=0.5;entryY=1;entryDx=0;entryDy=0;" parent="K7jrmlSnKd5e08-iuxen-86" source="K7jrmlSnKd5e08-iuxen-150" target="K7jrmlSnKd5e08-iuxen-148" edge="1">
          <mxGeometry width="50" height="50" relative="1" as="geometry">
            <mxPoint x="69.81999999999994" y="106.94000000000017" as="sourcePoint" />
            <mxPoint x="69.81999999999994" y="81.94000000000017" as="targetPoint" />
          </mxGeometry>
        </mxCell>
        <mxCell id="K7jrmlSnKd5e08-iuxen-153" value="Item&lt;br&gt;Features" style="text;html=1;strokeColor=none;fillColor=none;align=center;verticalAlign=middle;whiteSpace=wrap;rounded=0;fontSize=11;" parent="K7jrmlSnKd5e08-iuxen-86" vertex="1">
          <mxGeometry x="30" y="121.94000000000017" width="65" height="30" as="geometry" />
        </mxCell>
        <mxCell id="K7jrmlSnKd5e08-iuxen-323" value="" style="group" parent="1" vertex="1" connectable="0">
          <mxGeometry x="937" y="600.8299999999999" width="80" height="125.76000000000002" as="geometry" />
        </mxCell>
        <mxCell id="K7jrmlSnKd5e08-iuxen-324" value="" style="group" parent="K7jrmlSnKd5e08-iuxen-323" vertex="1" connectable="0">
          <mxGeometry x="34.00230769230769" width="40" height="44.57142857142857" as="geometry" />
        </mxCell>
        <mxCell id="K7jrmlSnKd5e08-iuxen-325" value="" style="shape=curlyBracket;whiteSpace=wrap;html=1;rounded=1;flipH=1;fontSize=22;strokeColor=#000000;fillColor=#000000;rotation=-90;size=0.5;" parent="K7jrmlSnKd5e08-iuxen-324" vertex="1">
          <mxGeometry x="18.076923076923077" y="36.62142857142857" width="10.769230769230768" height="34.285714285714285" as="geometry" />
        </mxCell>
        <mxCell id="K7jrmlSnKd5e08-iuxen-326" value="&lt;font style=&quot;font-size: 11px;&quot;&gt;concat&lt;/font&gt;" style="rounded=1;whiteSpace=wrap;html=1;fontSize=11;strokeColor=#000000;fillColor=none;" parent="K7jrmlSnKd5e08-iuxen-324" vertex="1">
          <mxGeometry x="4.14" y="36.05" width="38.65" height="10.43" as="geometry" />
        </mxCell>
        <mxCell id="K7jrmlSnKd5e08-iuxen-327" value="" style="rounded=0;whiteSpace=wrap;html=1;fontSize=22;strokeColor=none;fillColor=#99CCFF;" parent="K7jrmlSnKd5e08-iuxen-323" vertex="1">
          <mxGeometry x="49.386923076923075" y="60.62142857142857" width="5.384615384615384" height="6.857142857142857" as="geometry" />
        </mxCell>
        <mxCell id="K7jrmlSnKd5e08-iuxen-328" value="" style="rounded=0;whiteSpace=wrap;html=1;fontSize=22;strokeColor=none;fillColor=#3399FF;" parent="K7jrmlSnKd5e08-iuxen-323" vertex="1">
          <mxGeometry x="49.386923076923075" y="67.47857142857143" width="5.384615384615384" height="6.857142857142857" as="geometry" />
        </mxCell>
        <mxCell id="K7jrmlSnKd5e08-iuxen-329" value="" style="rounded=0;whiteSpace=wrap;html=1;fontSize=22;strokeColor=none;fillColor=#99CCFF;" parent="K7jrmlSnKd5e08-iuxen-323" vertex="1">
          <mxGeometry x="49.386923076923075" y="74.33571428571429" width="5.384615384615384" height="6.857142857142857" as="geometry" />
        </mxCell>
        <mxCell id="K7jrmlSnKd5e08-iuxen-330" value="" style="rounded=0;whiteSpace=wrap;html=1;fontSize=22;strokeColor=none;fillColor=#3399FF;" parent="K7jrmlSnKd5e08-iuxen-323" vertex="1">
          <mxGeometry x="49.386923076923075" y="81.19285714285714" width="5.384615384615384" height="6.857142857142857" as="geometry" />
        </mxCell>
        <mxCell id="K7jrmlSnKd5e08-iuxen-331" value="" style="rounded=0;whiteSpace=wrap;html=1;fontSize=22;strokeColor=none;fillColor=#97D077;" parent="K7jrmlSnKd5e08-iuxen-323" vertex="1">
          <mxGeometry x="61.30615384615385" y="60.62142857142857" width="5.384615384615384" height="6.857142857142857" as="geometry" />
        </mxCell>
        <mxCell id="K7jrmlSnKd5e08-iuxen-332" value="" style="rounded=0;whiteSpace=wrap;html=1;fontSize=22;strokeColor=none;fillColor=#B9E0A5;" parent="K7jrmlSnKd5e08-iuxen-323" vertex="1">
          <mxGeometry x="61.30615384615385" y="67.47857142857143" width="5.384615384615384" height="6.857142857142857" as="geometry" />
        </mxCell>
        <mxCell id="K7jrmlSnKd5e08-iuxen-333" value="" style="rounded=0;whiteSpace=wrap;html=1;fontSize=22;strokeColor=none;fillColor=#97D077;" parent="K7jrmlSnKd5e08-iuxen-323" vertex="1">
          <mxGeometry x="61.30615384615385" y="74.33571428571429" width="5.384615384615384" height="10.285714285714285" as="geometry" />
        </mxCell>
        <mxCell id="K7jrmlSnKd5e08-iuxen-334" value="" style="rounded=0;whiteSpace=wrap;html=1;fontSize=22;strokeColor=none;fillColor=#B9E0A5;" parent="K7jrmlSnKd5e08-iuxen-323" vertex="1">
          <mxGeometry x="61.30615384615385" y="81.19285714285714" width="5.384615384615384" height="6.857142857142857" as="geometry" />
        </mxCell>
        <mxCell id="K7jrmlSnKd5e08-iuxen-335" value="" style="ellipse;whiteSpace=wrap;html=1;aspect=fixed;fontSize=11;strokeColor=#000000;fillColor=none;" parent="K7jrmlSnKd5e08-iuxen-323" vertex="1">
          <mxGeometry x="49.386923076923075" y="105.19285714285714" width="4.615384615384615" height="4.615384615384615" as="geometry" />
        </mxCell>
        <mxCell id="K7jrmlSnKd5e08-iuxen-336" value="" style="ellipse;whiteSpace=wrap;html=1;aspect=fixed;fontSize=11;strokeColor=#000000;fillColor=none;" parent="K7jrmlSnKd5e08-iuxen-323" vertex="1">
          <mxGeometry x="61.30615384615385" y="105.19285714285714" width="4.615384615384615" height="4.615384615384615" as="geometry" />
        </mxCell>
        <mxCell id="K7jrmlSnKd5e08-iuxen-337" value="" style="endArrow=classic;html=1;rounded=0;fontSize=11;exitX=0.5;exitY=0;exitDx=0;exitDy=0;entryX=0.5;entryY=1;entryDx=0;entryDy=0;" parent="K7jrmlSnKd5e08-iuxen-323" source="K7jrmlSnKd5e08-iuxen-335" target="K7jrmlSnKd5e08-iuxen-330" edge="1">
          <mxGeometry width="50" height="50" relative="1" as="geometry">
            <mxPoint x="-281.76692307692304" y="-169.09285714285713" as="sourcePoint" />
            <mxPoint x="-254.84384615384613" y="-203.3785714285714" as="targetPoint" />
          </mxGeometry>
        </mxCell>
        <mxCell id="K7jrmlSnKd5e08-iuxen-338" value="" style="endArrow=classic;html=1;rounded=0;fontSize=11;exitX=0.5;exitY=0;exitDx=0;exitDy=0;entryX=0.5;entryY=1;entryDx=0;entryDy=0;" parent="K7jrmlSnKd5e08-iuxen-323" source="K7jrmlSnKd5e08-iuxen-336" target="K7jrmlSnKd5e08-iuxen-334" edge="1">
          <mxGeometry width="50" height="50" relative="1" as="geometry">
            <mxPoint x="-251.0984615384616" y="-107.37857142857142" as="sourcePoint" />
            <mxPoint x="-251.0984615384616" y="-124.52142857142854" as="targetPoint" />
          </mxGeometry>
        </mxCell>
        <mxCell id="K7jrmlSnKd5e08-iuxen-339" value="&lt;font style=&quot;font-size: 9px;&quot; face=&quot;Georgia&quot;&gt;&lt;i&gt;Item &lt;sub&gt;c2&lt;/sub&gt;&lt;/i&gt;&lt;/font&gt;" style="text;html=1;strokeColor=none;fillColor=none;align=center;verticalAlign=middle;whiteSpace=wrap;rounded=0;fontSize=11;" parent="K7jrmlSnKd5e08-iuxen-323" vertex="1">
          <mxGeometry x="26" y="105.19000000000001" width="60" height="20.57" as="geometry" />
        </mxCell>
        <mxCell id="K7jrmlSnKd5e08-iuxen-301" value="" style="group" parent="K7jrmlSnKd5e08-iuxen-323" vertex="1" connectable="0">
          <mxGeometry x="-41.887692307692305" width="40" height="44.57142857142857" as="geometry" />
        </mxCell>
        <mxCell id="K7jrmlSnKd5e08-iuxen-302" value="" style="shape=curlyBracket;whiteSpace=wrap;html=1;rounded=1;flipH=1;fontSize=22;strokeColor=#000000;fillColor=#000000;rotation=-90;size=0.5;" parent="K7jrmlSnKd5e08-iuxen-301" vertex="1">
          <mxGeometry x="18.076923076923077" y="36.62142857142857" width="10.769230769230768" height="34.285714285714285" as="geometry" />
        </mxCell>
        <mxCell id="K7jrmlSnKd5e08-iuxen-303" value="&lt;font style=&quot;font-size: 11px;&quot;&gt;concat&lt;/font&gt;" style="rounded=1;whiteSpace=wrap;html=1;fontSize=11;strokeColor=#000000;fillColor=none;" parent="K7jrmlSnKd5e08-iuxen-301" vertex="1">
          <mxGeometry x="4.14" y="36.05" width="38.65" height="10.43" as="geometry" />
        </mxCell>
        <mxCell id="K7jrmlSnKd5e08-iuxen-304" value="" style="rounded=0;whiteSpace=wrap;html=1;fontSize=22;strokeColor=none;fillColor=#99CCFF;" parent="K7jrmlSnKd5e08-iuxen-323" vertex="1">
          <mxGeometry x="-26.503076923076918" y="60.62142857142857" width="5.384615384615384" height="6.857142857142857" as="geometry" />
        </mxCell>
        <mxCell id="K7jrmlSnKd5e08-iuxen-305" value="" style="rounded=0;whiteSpace=wrap;html=1;fontSize=22;strokeColor=none;fillColor=#3399FF;" parent="K7jrmlSnKd5e08-iuxen-323" vertex="1">
          <mxGeometry x="-26.503076923076918" y="67.47857142857143" width="5.384615384615384" height="6.857142857142857" as="geometry" />
        </mxCell>
        <mxCell id="K7jrmlSnKd5e08-iuxen-306" value="" style="rounded=0;whiteSpace=wrap;html=1;fontSize=22;strokeColor=none;fillColor=#99CCFF;" parent="K7jrmlSnKd5e08-iuxen-323" vertex="1">
          <mxGeometry x="-26.503076923076918" y="74.33571428571429" width="5.384615384615384" height="6.857142857142857" as="geometry" />
        </mxCell>
        <mxCell id="K7jrmlSnKd5e08-iuxen-307" value="" style="rounded=0;whiteSpace=wrap;html=1;fontSize=22;strokeColor=none;fillColor=#3399FF;" parent="K7jrmlSnKd5e08-iuxen-323" vertex="1">
          <mxGeometry x="-26.503076923076918" y="81.19285714285714" width="5.384615384615384" height="6.857142857142857" as="geometry" />
        </mxCell>
        <mxCell id="K7jrmlSnKd5e08-iuxen-308" value="" style="rounded=0;whiteSpace=wrap;html=1;fontSize=22;strokeColor=none;fillColor=#97D077;" parent="K7jrmlSnKd5e08-iuxen-323" vertex="1">
          <mxGeometry x="-14.583846153846153" y="60.62142857142857" width="5.384615384615384" height="6.857142857142857" as="geometry" />
        </mxCell>
        <mxCell id="K7jrmlSnKd5e08-iuxen-309" value="" style="rounded=0;whiteSpace=wrap;html=1;fontSize=22;strokeColor=none;fillColor=#B9E0A5;" parent="K7jrmlSnKd5e08-iuxen-323" vertex="1">
          <mxGeometry x="-14.583846153846153" y="67.47857142857143" width="5.384615384615384" height="6.857142857142857" as="geometry" />
        </mxCell>
        <mxCell id="K7jrmlSnKd5e08-iuxen-310" value="" style="rounded=0;whiteSpace=wrap;html=1;fontSize=22;strokeColor=none;fillColor=#97D077;" parent="K7jrmlSnKd5e08-iuxen-323" vertex="1">
          <mxGeometry x="-14.583846153846153" y="74.33571428571429" width="5.384615384615384" height="10.285714285714285" as="geometry" />
        </mxCell>
        <mxCell id="K7jrmlSnKd5e08-iuxen-311" value="" style="rounded=0;whiteSpace=wrap;html=1;fontSize=22;strokeColor=none;fillColor=#B9E0A5;" parent="K7jrmlSnKd5e08-iuxen-323" vertex="1">
          <mxGeometry x="-14.583846153846153" y="81.19285714285714" width="5.384615384615384" height="6.857142857142857" as="geometry" />
        </mxCell>
        <mxCell id="K7jrmlSnKd5e08-iuxen-312" value="" style="ellipse;whiteSpace=wrap;html=1;aspect=fixed;fontSize=11;strokeColor=#000000;fillColor=none;" parent="K7jrmlSnKd5e08-iuxen-323" vertex="1">
          <mxGeometry x="-26.503076923076918" y="105.19285714285714" width="4.615384615384615" height="4.615384615384615" as="geometry" />
        </mxCell>
        <mxCell id="K7jrmlSnKd5e08-iuxen-313" value="" style="ellipse;whiteSpace=wrap;html=1;aspect=fixed;fontSize=11;strokeColor=#000000;fillColor=none;" parent="K7jrmlSnKd5e08-iuxen-323" vertex="1">
          <mxGeometry x="-14.583846153846153" y="105.19285714285714" width="4.615384615384615" height="4.615384615384615" as="geometry" />
        </mxCell>
        <mxCell id="K7jrmlSnKd5e08-iuxen-314" value="" style="endArrow=classic;html=1;rounded=0;fontSize=11;exitX=0.5;exitY=0;exitDx=0;exitDy=0;entryX=0.5;entryY=1;entryDx=0;entryDy=0;" parent="K7jrmlSnKd5e08-iuxen-323" source="K7jrmlSnKd5e08-iuxen-312" target="K7jrmlSnKd5e08-iuxen-307" edge="1">
          <mxGeometry width="50" height="50" relative="1" as="geometry">
            <mxPoint x="-357.656923076923" y="-169.09285714285716" as="sourcePoint" />
            <mxPoint x="-330.7338461538461" y="-203.37857142857138" as="targetPoint" />
          </mxGeometry>
        </mxCell>
        <mxCell id="K7jrmlSnKd5e08-iuxen-315" value="" style="endArrow=classic;html=1;rounded=0;fontSize=11;exitX=0.5;exitY=0;exitDx=0;exitDy=0;entryX=0.5;entryY=1;entryDx=0;entryDy=0;" parent="K7jrmlSnKd5e08-iuxen-323" source="K7jrmlSnKd5e08-iuxen-313" target="K7jrmlSnKd5e08-iuxen-311" edge="1">
          <mxGeometry width="50" height="50" relative="1" as="geometry">
            <mxPoint x="-326.9884615384616" y="-107.37857142857143" as="sourcePoint" />
            <mxPoint x="-326.9884615384616" y="-124.52142857142854" as="targetPoint" />
          </mxGeometry>
        </mxCell>
        <mxCell id="K7jrmlSnKd5e08-iuxen-316" value="&lt;font style=&quot;font-size: 9px;&quot; face=&quot;Georgia&quot;&gt;&lt;i&gt;Item &lt;sub&gt;c1&lt;/sub&gt;&lt;/i&gt;&lt;/font&gt;" style="text;html=1;strokeColor=none;fillColor=none;align=center;verticalAlign=middle;whiteSpace=wrap;rounded=0;fontSize=11;" parent="K7jrmlSnKd5e08-iuxen-323" vertex="1">
          <mxGeometry x="-51.89" y="105.19000000000001" width="60" height="20.57" as="geometry" />
        </mxCell>
        <mxCell id="K7jrmlSnKd5e08-iuxen-318" style="edgeStyle=orthogonalEdgeStyle;rounded=0;orthogonalLoop=1;jettySize=auto;html=1;exitX=0.5;exitY=0;exitDx=0;exitDy=0;fontFamily=Georgia;fontSize=11;" parent="K7jrmlSnKd5e08-iuxen-323" source="K7jrmlSnKd5e08-iuxen-319" edge="1">
          <mxGeometry relative="1" as="geometry">
            <Array as="points">
              <mxPoint x="-7.580000000000041" y="-10" />
            </Array>
            <mxPoint x="-44.58000000000004" y="-9.829999999999927" as="targetPoint" />
          </mxGeometry>
        </mxCell>
        <mxCell id="K7jrmlSnKd5e08-iuxen-319" value="&lt;font style=&quot;font-size: 10px;&quot;&gt;Activation&lt;br&gt;&lt;/font&gt;" style="rounded=1;whiteSpace=wrap;html=1;fontSize=11;strokeColor=#000000;fillColor=none;" parent="K7jrmlSnKd5e08-iuxen-323" vertex="1">
          <mxGeometry x="-36.500000000000114" width="57.92" height="10" as="geometry" />
        </mxCell>
        <mxCell id="K7jrmlSnKd5e08-iuxen-320" style="edgeStyle=none;rounded=0;orthogonalLoop=1;jettySize=auto;html=1;exitX=0.5;exitY=0;exitDx=0;exitDy=0;fontFamily=Georgia;fontSize=10;" parent="K7jrmlSnKd5e08-iuxen-323" source="K7jrmlSnKd5e08-iuxen-303" edge="1">
          <mxGeometry relative="1" as="geometry">
            <mxPoint x="-18.58000000000004" y="10.000000000000227" as="targetPoint" />
          </mxGeometry>
        </mxCell>
        <mxCell id="K7jrmlSnKd5e08-iuxen-340" style="edgeStyle=orthogonalEdgeStyle;rounded=0;orthogonalLoop=1;jettySize=auto;html=1;exitX=0.5;exitY=0;exitDx=0;exitDy=0;entryX=1.025;entryY=0.593;entryDx=0;entryDy=0;fontFamily=Georgia;fontSize=11;entryPerimeter=0;" parent="1" source="K7jrmlSnKd5e08-iuxen-341" target="s96yfOAvuMhZukNOSEZi-5" edge="1">
          <mxGeometry relative="1" as="geometry">
            <Array as="points">
              <mxPoint x="1005.31" y="591" />
            </Array>
            <mxPoint x="969.31" y="590.8299999999999" as="targetPoint" />
          </mxGeometry>
        </mxCell>
        <mxCell id="K7jrmlSnKd5e08-iuxen-341" value="&lt;font style=&quot;font-size: 10px;&quot;&gt;Activation&lt;br&gt;&lt;/font&gt;" style="rounded=1;whiteSpace=wrap;html=1;fontSize=11;strokeColor=#000000;fillColor=none;" parent="1" vertex="1">
          <mxGeometry x="976.3899999999999" y="600.8299999999999" width="57.92" height="10" as="geometry" />
        </mxCell>
        <mxCell id="K7jrmlSnKd5e08-iuxen-342" style="edgeStyle=none;rounded=0;orthogonalLoop=1;jettySize=auto;html=1;exitX=0.5;exitY=0;exitDx=0;exitDy=0;fontFamily=Georgia;fontSize=10;" parent="1" source="K7jrmlSnKd5e08-iuxen-326" edge="1">
          <mxGeometry relative="1" as="geometry">
            <mxPoint x="994.31" y="610.8300000000002" as="targetPoint" />
          </mxGeometry>
        </mxCell>
        <mxCell id="K7jrmlSnKd5e08-iuxen-345" value="" style="endArrow=classic;html=1;rounded=0;fontFamily=Georgia;fontSize=11;strokeColor=#FF8000;entryX=0.75;entryY=1;entryDx=0;entryDy=0;" parent="1" target="K7jrmlSnKd5e08-iuxen-341" edge="1">
          <mxGeometry width="50" height="50" relative="1" as="geometry">
            <mxPoint x="1020.31" y="630.8300000000002" as="sourcePoint" />
            <mxPoint x="1055.31" y="620.8299999999999" as="targetPoint" />
          </mxGeometry>
        </mxCell>
        <mxCell id="K7jrmlSnKd5e08-iuxen-348" value="" style="group" parent="1" vertex="1" connectable="0">
          <mxGeometry x="1061.6923076923076" y="600.8299999999999" width="40" height="44.57142857142857" as="geometry" />
        </mxCell>
        <mxCell id="K7jrmlSnKd5e08-iuxen-349" value="" style="shape=curlyBracket;whiteSpace=wrap;html=1;rounded=1;flipH=1;fontSize=22;strokeColor=#000000;fillColor=#000000;rotation=-90;size=0.5;" parent="K7jrmlSnKd5e08-iuxen-348" vertex="1">
          <mxGeometry x="18.076923076923077" y="36.62142857142857" width="10.769230769230768" height="34.285714285714285" as="geometry" />
        </mxCell>
        <mxCell id="K7jrmlSnKd5e08-iuxen-350" value="&lt;font style=&quot;font-size: 11px;&quot;&gt;concat&lt;/font&gt;" style="rounded=1;whiteSpace=wrap;html=1;fontSize=11;strokeColor=#000000;fillColor=none;" parent="K7jrmlSnKd5e08-iuxen-348" vertex="1">
          <mxGeometry x="4.14" y="36.05" width="38.65" height="10.43" as="geometry" />
        </mxCell>
        <mxCell id="K7jrmlSnKd5e08-iuxen-351" value="" style="rounded=0;whiteSpace=wrap;html=1;fontSize=22;strokeColor=none;fillColor=#99CCFF;" parent="1" vertex="1">
          <mxGeometry x="1077.076923076923" y="661.4514285714286" width="5.384615384615384" height="6.857142857142857" as="geometry" />
        </mxCell>
        <mxCell id="K7jrmlSnKd5e08-iuxen-352" value="" style="rounded=0;whiteSpace=wrap;html=1;fontSize=22;strokeColor=none;fillColor=#3399FF;" parent="1" vertex="1">
          <mxGeometry x="1077.076923076923" y="668.3085714285714" width="5.384615384615384" height="6.857142857142857" as="geometry" />
        </mxCell>
        <mxCell id="K7jrmlSnKd5e08-iuxen-353" value="" style="rounded=0;whiteSpace=wrap;html=1;fontSize=22;strokeColor=none;fillColor=#99CCFF;" parent="1" vertex="1">
          <mxGeometry x="1077.076923076923" y="675.1657142857143" width="5.384615384615384" height="6.857142857142857" as="geometry" />
        </mxCell>
        <mxCell id="K7jrmlSnKd5e08-iuxen-354" value="" style="rounded=0;whiteSpace=wrap;html=1;fontSize=22;strokeColor=none;fillColor=#3399FF;" parent="1" vertex="1">
          <mxGeometry x="1077.076923076923" y="682.0228571428572" width="5.384615384615384" height="6.857142857142857" as="geometry" />
        </mxCell>
        <mxCell id="K7jrmlSnKd5e08-iuxen-355" value="" style="rounded=0;whiteSpace=wrap;html=1;fontSize=22;strokeColor=none;fillColor=#97D077;" parent="1" vertex="1">
          <mxGeometry x="1088.996153846154" y="661.4514285714286" width="5.384615384615384" height="6.857142857142857" as="geometry" />
        </mxCell>
        <mxCell id="K7jrmlSnKd5e08-iuxen-356" value="" style="rounded=0;whiteSpace=wrap;html=1;fontSize=22;strokeColor=none;fillColor=#B9E0A5;" parent="1" vertex="1">
          <mxGeometry x="1088.996153846154" y="668.3085714285714" width="5.384615384615384" height="6.857142857142857" as="geometry" />
        </mxCell>
        <mxCell id="K7jrmlSnKd5e08-iuxen-357" value="" style="rounded=0;whiteSpace=wrap;html=1;fontSize=22;strokeColor=none;fillColor=#97D077;" parent="1" vertex="1">
          <mxGeometry x="1088.996153846154" y="675.1657142857143" width="5.384615384615384" height="10.285714285714285" as="geometry" />
        </mxCell>
        <mxCell id="K7jrmlSnKd5e08-iuxen-358" value="" style="rounded=0;whiteSpace=wrap;html=1;fontSize=22;strokeColor=none;fillColor=#B9E0A5;" parent="1" vertex="1">
          <mxGeometry x="1088.996153846154" y="682.0228571428572" width="5.384615384615384" height="6.857142857142857" as="geometry" />
        </mxCell>
        <mxCell id="K7jrmlSnKd5e08-iuxen-359" value="" style="ellipse;whiteSpace=wrap;html=1;aspect=fixed;fontSize=11;strokeColor=#000000;fillColor=none;" parent="1" vertex="1">
          <mxGeometry x="1077.076923076923" y="706.0228571428572" width="4.615384615384615" height="4.615384615384615" as="geometry" />
        </mxCell>
        <mxCell id="K7jrmlSnKd5e08-iuxen-360" value="" style="ellipse;whiteSpace=wrap;html=1;aspect=fixed;fontSize=11;strokeColor=#000000;fillColor=none;" parent="1" vertex="1">
          <mxGeometry x="1088.996153846154" y="706.0228571428572" width="4.615384615384615" height="4.615384615384615" as="geometry" />
        </mxCell>
        <mxCell id="K7jrmlSnKd5e08-iuxen-361" value="" style="endArrow=classic;html=1;rounded=0;fontSize=11;exitX=0.5;exitY=0;exitDx=0;exitDy=0;entryX=0.5;entryY=1;entryDx=0;entryDy=0;" parent="1" source="K7jrmlSnKd5e08-iuxen-359" target="K7jrmlSnKd5e08-iuxen-354" edge="1">
          <mxGeometry width="50" height="50" relative="1" as="geometry">
            <mxPoint x="-68.0769230769231" y="-68.26285714285711" as="sourcePoint" />
            <mxPoint x="-41.15384615384619" y="-102.54857142857139" as="targetPoint" />
          </mxGeometry>
        </mxCell>
        <mxCell id="K7jrmlSnKd5e08-iuxen-362" value="" style="endArrow=classic;html=1;rounded=0;fontSize=11;exitX=0.5;exitY=0;exitDx=0;exitDy=0;entryX=0.5;entryY=1;entryDx=0;entryDy=0;" parent="1" source="K7jrmlSnKd5e08-iuxen-360" target="K7jrmlSnKd5e08-iuxen-358" edge="1">
          <mxGeometry width="50" height="50" relative="1" as="geometry">
            <mxPoint x="-37.408461538461665" y="-6.548571428571407" as="sourcePoint" />
            <mxPoint x="-37.408461538461665" y="-23.69142857142853" as="targetPoint" />
          </mxGeometry>
        </mxCell>
        <mxCell id="K7jrmlSnKd5e08-iuxen-363" value="&lt;font style=&quot;font-size: 9px;&quot; face=&quot;Georgia&quot;&gt;&lt;i&gt;Item &lt;sub&gt;cN&lt;/sub&gt;&lt;/i&gt;&lt;/font&gt;" style="text;html=1;strokeColor=none;fillColor=none;align=center;verticalAlign=middle;whiteSpace=wrap;rounded=0;fontSize=11;" parent="1" vertex="1">
          <mxGeometry x="1053.69" y="706.02" width="60" height="20.57" as="geometry" />
        </mxCell>
        <mxCell id="K7jrmlSnKd5e08-iuxen-364" style="edgeStyle=orthogonalEdgeStyle;rounded=0;orthogonalLoop=1;jettySize=auto;html=1;exitX=0.5;exitY=0;exitDx=0;exitDy=0;entryX=1;entryY=0.5;entryDx=0;entryDy=0;fontFamily=Georgia;fontSize=11;" parent="1" source="K7jrmlSnKd5e08-iuxen-365" target="s96yfOAvuMhZukNOSEZi-38" edge="1">
          <mxGeometry relative="1" as="geometry">
            <Array as="points">
              <mxPoint x="1096" y="590" />
            </Array>
            <mxPoint x="1060.0000000000002" y="590.8299999999999" as="targetPoint" />
          </mxGeometry>
        </mxCell>
        <mxCell id="K7jrmlSnKd5e08-iuxen-365" value="&lt;font style=&quot;font-size: 10px;&quot;&gt;Activation&lt;br&gt;&lt;/font&gt;" style="rounded=1;whiteSpace=wrap;html=1;fontSize=11;strokeColor=#000000;fillColor=none;" parent="1" vertex="1">
          <mxGeometry x="1067.08" y="600.8299999999999" width="57.92" height="10" as="geometry" />
        </mxCell>
        <mxCell id="K7jrmlSnKd5e08-iuxen-366" style="edgeStyle=none;rounded=0;orthogonalLoop=1;jettySize=auto;html=1;exitX=0.5;exitY=0;exitDx=0;exitDy=0;fontFamily=Georgia;fontSize=10;" parent="1" source="K7jrmlSnKd5e08-iuxen-350" edge="1">
          <mxGeometry relative="1" as="geometry">
            <mxPoint x="1085" y="610.8300000000002" as="targetPoint" />
          </mxGeometry>
        </mxCell>
        <mxCell id="K7jrmlSnKd5e08-iuxen-368" style="edgeStyle=orthogonalEdgeStyle;rounded=0;orthogonalLoop=1;jettySize=auto;html=1;exitX=0;exitY=0.5;exitDx=0;exitDy=0;entryX=0.5;entryY=1;entryDx=0;entryDy=0;fontFamily=Georgia;fontSize=11;" parent="1" source="K7jrmlSnKd5e08-iuxen-350" target="s96yfOAvuMhZukNOSEZi-38" edge="1">
          <mxGeometry relative="1" as="geometry">
            <Array as="points">
              <mxPoint x="1062" y="642" />
              <mxPoint x="1062" y="595" />
            </Array>
            <mxPoint x="1055.0000000000002" y="595.8299999999999" as="targetPoint" />
          </mxGeometry>
        </mxCell>
        <mxCell id="K7jrmlSnKd5e08-iuxen-369" value="" style="endArrow=classic;html=1;rounded=0;fontFamily=Georgia;fontSize=11;strokeColor=#FF8000;entryX=0.75;entryY=1;entryDx=0;entryDy=0;" parent="1" target="K7jrmlSnKd5e08-iuxen-365" edge="1">
          <mxGeometry width="50" height="50" relative="1" as="geometry">
            <mxPoint x="1111" y="630.8300000000002" as="sourcePoint" />
            <mxPoint x="1146" y="620.8299999999999" as="targetPoint" />
          </mxGeometry>
        </mxCell>
        <mxCell id="K7jrmlSnKd5e08-iuxen-347" value="" style="endArrow=classic;html=1;rounded=0;fontFamily=Georgia;fontSize=11;strokeColor=#000000;exitX=0.5;exitY=0;exitDx=0;exitDy=0;entryX=0.547;entryY=0.143;entryDx=0;entryDy=0;entryPerimeter=0;" parent="1" edge="1">
          <mxGeometry width="50" height="50" relative="1" as="geometry">
            <mxPoint x="970.2599999999999" y="585.0000000000001" as="sourcePoint" />
            <mxPoint x="970.0000000000001" y="570.9399999999999" as="targetPoint" />
          </mxGeometry>
        </mxCell>
        <mxCell id="s96yfOAvuMhZukNOSEZi-39" style="edgeStyle=orthogonalEdgeStyle;rounded=0;orthogonalLoop=1;jettySize=auto;html=1;exitX=0;exitY=0.5;exitDx=0;exitDy=0;entryX=0.5;entryY=1;entryDx=0;entryDy=0;" parent="1" source="K7jrmlSnKd5e08-iuxen-326" target="s96yfOAvuMhZukNOSEZi-5" edge="1">
          <mxGeometry relative="1" as="geometry">
            <Array as="points">
              <mxPoint x="971" y="642" />
              <mxPoint x="971" y="616" />
              <mxPoint x="971" y="616" />
            </Array>
          </mxGeometry>
        </mxCell>
        <mxCell id="K7jrmlSnKd5e08-iuxen-659" value="&lt;i&gt;&lt;font face=&quot;Times New Roman&quot;&gt;E&lt;sub&gt;c-s&lt;/sub&gt;&lt;/font&gt;&lt;/i&gt;" style="text;html=1;strokeColor=none;fillColor=none;align=center;verticalAlign=middle;whiteSpace=wrap;rounded=0;" parent="1" vertex="1">
          <mxGeometry x="993.69" y="469.81" width="60" height="14.18" as="geometry" />
        </mxCell>
        <mxCell id="s96yfOAvuMhZukNOSEZi-5" value="" style="shape=sumEllipse;perimeter=ellipsePerimeter;whiteSpace=wrap;html=1;backgroundOutline=1;" parent="1" vertex="1">
          <mxGeometry x="965.72" y="585" width="10" height="10" as="geometry" />
        </mxCell>
        <mxCell id="s96yfOAvuMhZukNOSEZi-38" value="" style="shape=sumEllipse;perimeter=ellipsePerimeter;whiteSpace=wrap;html=1;backgroundOutline=1;" parent="1" vertex="1">
          <mxGeometry x="1057.08" y="585" width="10" height="10" as="geometry" />
        </mxCell>
        <mxCell id="K7jrmlSnKd5e08-iuxen-370" value="" style="endArrow=classic;html=1;rounded=0;fontFamily=Georgia;fontSize=11;strokeColor=#000000;exitX=0.5;exitY=0;exitDx=0;exitDy=0;entryX=0.547;entryY=0.143;entryDx=0;entryDy=0;entryPerimeter=0;" parent="1" edge="1">
          <mxGeometry width="50" height="50" relative="1" as="geometry">
            <mxPoint x="1062.21" y="585.0000000000001" as="sourcePoint" />
            <mxPoint x="1061.9499999999998" y="570.9399999999999" as="targetPoint" />
          </mxGeometry>
        </mxCell>
        <mxCell id="K7jrmlSnKd5e08-iuxen-371" value="&lt;font style=&quot;font-size: 22px;&quot;&gt;……&lt;/font&gt;" style="text;html=1;strokeColor=none;fillColor=none;align=center;verticalAlign=middle;whiteSpace=wrap;rounded=0;fontFamily=Georgia;fontSize=11;" parent="1" vertex="1">
          <mxGeometry x="1011.83" y="659.1800000000001" width="60" height="30" as="geometry" />
        </mxCell>
        <mxCell id="K7jrmlSnKd5e08-iuxen-299" value="" style="shape=curlyBracket;whiteSpace=wrap;html=1;rounded=1;flipH=1;fontSize=22;strokeColor=#000000;fillColor=#000000;rotation=-90;size=0.5;" parent="1" vertex="1">
          <mxGeometry x="975.7199999999999" y="450" width="20" height="215.17" as="geometry" />
        </mxCell>
        <mxCell id="K7jrmlSnKd5e08-iuxen-296" value="" style="endArrow=classic;html=1;rounded=0;fontSize=11;exitX=0;exitY=0;exitDx=0;exitDy=0;entryX=0.346;entryY=1.033;entryDx=0;entryDy=0;entryPerimeter=0;" parent="1" source="K7jrmlSnKd5e08-iuxen-640" target="K7jrmlSnKd5e08-iuxen-1" edge="1">
          <mxGeometry width="50" height="50" relative="1" as="geometry">
            <mxPoint x="988.14" y="514.1800000000001" as="sourcePoint" />
            <mxPoint x="987.79" y="458.99" as="targetPoint" />
          </mxGeometry>
        </mxCell>
        <mxCell id="K7jrmlSnKd5e08-iuxen-298" value="&lt;font style=&quot;font-size: 11px;&quot;&gt;concat&lt;/font&gt;" style="rounded=1;whiteSpace=wrap;html=1;fontSize=11;strokeColor=#000000;fillColor=none;" parent="1" vertex="1">
          <mxGeometry x="964.7099999999999" y="529.1800000000001" width="45" height="20" as="geometry" />
        </mxCell>
        <mxCell id="K7jrmlSnKd5e08-iuxen-372" value="&lt;font face=&quot;Helvetica&quot; color=&quot;#ff8000&quot;&gt;&lt;span style=&quot;font-size: 12px;&quot;&gt;券门槛—TOP核销店铺 &lt;b&gt;Coupon-Shop&lt;/b&gt; 序列&lt;/span&gt;&lt;/font&gt;" style="text;html=1;strokeColor=none;fillColor=none;align=center;verticalAlign=middle;whiteSpace=wrap;rounded=0;dashed=1;fontFamily=Georgia;fontSize=22;" parent="1" vertex="1">
          <mxGeometry x="876.9999999999999" y="730.0000000000001" width="256" height="30" as="geometry" />
        </mxCell>
        <mxCell id="K7jrmlSnKd5e08-iuxen-297" value="" style="rounded=0;whiteSpace=wrap;html=1;fontFamily=Georgia;fontSize=22;strokeColor=#000000;fillColor=none;dashed=1;" parent="1" vertex="1">
          <mxGeometry x="865.08" y="499.18" width="267.92" height="271.64" as="geometry" />
        </mxCell>
        <mxCell id="K7jrmlSnKd5e08-iuxen-636" value="" style="group;fillColor=#dae8fc;strokeColor=#6c8ebf;fontStyle=1;container=0;" parent="1" vertex="1" connectable="0">
          <mxGeometry x="977.21" y="510" width="10" height="10" as="geometry" />
        </mxCell>
        <mxCell id="K7jrmlSnKd5e08-iuxen-637" value="" style="rounded=0;whiteSpace=wrap;html=1;fontSize=22;strokeColor=#82b366;fillColor=#d5e8d4;fontStyle=1;container=0;" parent="1" vertex="1">
          <mxGeometry x="967.2099999999999" y="510" width="10" height="10" as="geometry" />
        </mxCell>
        <mxCell id="K7jrmlSnKd5e08-iuxen-638" style="edgeStyle=none;rounded=0;orthogonalLoop=1;jettySize=auto;html=1;exitX=1;exitY=1;exitDx=0;exitDy=0;fontSize=22;strokeColor=none;fontStyle=1" parent="1" source="K7jrmlSnKd5e08-iuxen-637" target="K7jrmlSnKd5e08-iuxen-637" edge="1">
          <mxGeometry relative="1" as="geometry" />
        </mxCell>
        <mxCell id="K7jrmlSnKd5e08-iuxen-639" value="" style="rounded=0;whiteSpace=wrap;html=1;fontSize=22;strokeColor=#6c8ebf;fillColor=#dae8fc;fontStyle=1;container=0;" parent="1" vertex="1">
          <mxGeometry x="997.2099999999999" y="510" width="10" height="10" as="geometry" />
        </mxCell>
        <mxCell id="K7jrmlSnKd5e08-iuxen-640" value="" style="rounded=0;whiteSpace=wrap;html=1;fontSize=22;strokeColor=#82b366;fillColor=#d5e8d4;fontStyle=1;container=0;" parent="1" vertex="1">
          <mxGeometry x="987.2099999999999" y="510" width="10" height="10" as="geometry" />
        </mxCell>
        <mxCell id="D2Ym_hAoNKhn_BesaTCI-31" value="" style="group" vertex="1" connectable="0" parent="1">
          <mxGeometry x="1349.5" y="489.18" width="193.5" height="290.82" as="geometry" />
        </mxCell>
        <mxCell id="D2Ym_hAoNKhn_BesaTCI-32" value="" style="rounded=0;whiteSpace=wrap;html=1;fontFamily=Georgia;fontSize=22;strokeColor=#000000;fillColor=none;dashed=1;" vertex="1" parent="D2Ym_hAoNKhn_BesaTCI-31">
          <mxGeometry x="-70" y="9.999999999999996" width="263.5" height="270.8199999999999" as="geometry" />
        </mxCell>
        <mxCell id="D2Ym_hAoNKhn_BesaTCI-33" value="" style="group" vertex="1" connectable="0" parent="D2Ym_hAoNKhn_BesaTCI-31">
          <mxGeometry x="25.08" y="20.81999999999999" width="40" height="9.999999999999996" as="geometry" />
        </mxCell>
        <mxCell id="D2Ym_hAoNKhn_BesaTCI-34" value="" style="rounded=0;whiteSpace=wrap;html=1;fontSize=22;strokeColor=none;fillColor=#CDA2BE;" vertex="1" parent="D2Ym_hAoNKhn_BesaTCI-33">
          <mxGeometry width="10" height="9.999999999999996" as="geometry" />
        </mxCell>
        <mxCell id="D2Ym_hAoNKhn_BesaTCI-35" style="edgeStyle=none;rounded=0;orthogonalLoop=1;jettySize=auto;html=1;exitX=1;exitY=1;exitDx=0;exitDy=0;fontSize=22;strokeColor=none;" edge="1" parent="D2Ym_hAoNKhn_BesaTCI-33" source="D2Ym_hAoNKhn_BesaTCI-34" target="D2Ym_hAoNKhn_BesaTCI-34">
          <mxGeometry relative="1" as="geometry" />
        </mxCell>
        <mxCell id="D2Ym_hAoNKhn_BesaTCI-36" value="" style="rounded=0;whiteSpace=wrap;html=1;fontSize=22;strokeColor=none;fillColor=#FFCE9F;" vertex="1" parent="D2Ym_hAoNKhn_BesaTCI-33">
          <mxGeometry x="10" width="10" height="9.999999999999996" as="geometry" />
        </mxCell>
        <mxCell id="D2Ym_hAoNKhn_BesaTCI-37" value="" style="rounded=0;whiteSpace=wrap;html=1;fontSize=22;strokeColor=none;fillColor=#CDA2BE;" vertex="1" parent="D2Ym_hAoNKhn_BesaTCI-33">
          <mxGeometry x="20" width="10" height="9.999999999999996" as="geometry" />
        </mxCell>
        <mxCell id="D2Ym_hAoNKhn_BesaTCI-38" value="" style="rounded=0;whiteSpace=wrap;html=1;fontSize=22;strokeColor=none;fillColor=#FFCE9F;" vertex="1" parent="D2Ym_hAoNKhn_BesaTCI-33">
          <mxGeometry x="30" width="10" height="9.999999999999996" as="geometry" />
        </mxCell>
        <mxCell id="D2Ym_hAoNKhn_BesaTCI-39" value="&lt;i&gt;&lt;font face=&quot;Times New Roman&quot;&gt;E&lt;sub&gt;u-s&lt;/sub&gt;&lt;/font&gt;&lt;/i&gt;" style="text;html=1;strokeColor=none;fillColor=none;align=center;verticalAlign=middle;whiteSpace=wrap;rounded=0;" vertex="1" parent="D2Ym_hAoNKhn_BesaTCI-31">
          <mxGeometry x="62.58" y="10.819999999999995" width="60" height="29.999999999999986" as="geometry" />
        </mxCell>
        <mxCell id="D2Ym_hAoNKhn_BesaTCI-40" value="" style="shape=sumEllipse;perimeter=ellipsePerimeter;whiteSpace=wrap;html=1;backgroundOutline=1;" vertex="1" parent="D2Ym_hAoNKhn_BesaTCI-31">
          <mxGeometry x="112.58" y="95.81999999999995" width="10" height="9.999999999999996" as="geometry" />
        </mxCell>
        <mxCell id="D2Ym_hAoNKhn_BesaTCI-41" value="&lt;font style=&quot;font-size: 22px;&quot;&gt;……&lt;/font&gt;" style="text;html=1;strokeColor=none;fillColor=none;align=center;verticalAlign=middle;whiteSpace=wrap;rounded=0;fontFamily=Georgia;fontSize=11;" vertex="1" parent="D2Ym_hAoNKhn_BesaTCI-31">
          <mxGeometry x="66.75" y="169.99999999999997" width="60" height="29.999999999999986" as="geometry" />
        </mxCell>
        <mxCell id="D2Ym_hAoNKhn_BesaTCI-42" value="" style="endArrow=classic;html=1;rounded=0;fontFamily=Georgia;fontSize=11;strokeColor=#000000;exitX=0.5;exitY=0;exitDx=0;exitDy=0;entryX=0.547;entryY=0.143;entryDx=0;entryDy=0;entryPerimeter=0;" edge="1" parent="D2Ym_hAoNKhn_BesaTCI-31">
          <mxGeometry width="50" height="50" relative="1" as="geometry">
            <mxPoint x="117.71" y="95.82000000000006" as="sourcePoint" />
            <mxPoint x="117.45000000000023" y="81.75999999999978" as="targetPoint" />
          </mxGeometry>
        </mxCell>
        <mxCell id="D2Ym_hAoNKhn_BesaTCI-43" value="" style="endArrow=classic;html=1;rounded=0;fontFamily=Georgia;fontSize=11;strokeColor=#000000;exitX=0.5;exitY=0;exitDx=0;exitDy=0;entryX=0.547;entryY=0.143;entryDx=0;entryDy=0;entryPerimeter=0;" edge="1" parent="D2Ym_hAoNKhn_BesaTCI-31">
          <mxGeometry width="50" height="50" relative="1" as="geometry">
            <mxPoint x="18.75999999999999" y="95.82000000000006" as="sourcePoint" />
            <mxPoint x="18.500000000000227" y="81.75999999999978" as="targetPoint" />
          </mxGeometry>
        </mxCell>
        <mxCell id="D2Ym_hAoNKhn_BesaTCI-44" value="" style="group" vertex="1" connectable="0" parent="D2Ym_hAoNKhn_BesaTCI-31">
          <mxGeometry x="17.499999999999943" y="111.64999999999988" width="80" height="119.99999999999994" as="geometry" />
        </mxCell>
        <mxCell id="D2Ym_hAoNKhn_BesaTCI-45" value="" style="group" vertex="1" connectable="0" parent="D2Ym_hAoNKhn_BesaTCI-44">
          <mxGeometry x="2.692307692307692" width="40" height="44.57142857142855" as="geometry" />
        </mxCell>
        <mxCell id="D2Ym_hAoNKhn_BesaTCI-46" value="" style="shape=curlyBracket;whiteSpace=wrap;html=1;rounded=1;flipH=1;fontSize=22;strokeColor=#000000;fillColor=#000000;rotation=-90;size=0.5;" vertex="1" parent="D2Ym_hAoNKhn_BesaTCI-45">
          <mxGeometry x="18.076923076923077" y="36.62142857142855" width="10.769230769230768" height="34.28571428571427" as="geometry" />
        </mxCell>
        <mxCell id="D2Ym_hAoNKhn_BesaTCI-47" value="&lt;font style=&quot;font-size: 11px;&quot;&gt;concat&lt;/font&gt;" style="rounded=1;whiteSpace=wrap;html=1;fontSize=11;strokeColor=#000000;fillColor=none;" vertex="1" parent="D2Ym_hAoNKhn_BesaTCI-45">
          <mxGeometry x="4.14" y="36.04999999999998" width="38.65" height="10.429999999999994" as="geometry" />
        </mxCell>
        <mxCell id="D2Ym_hAoNKhn_BesaTCI-48" value="" style="rounded=0;whiteSpace=wrap;html=1;fontSize=22;strokeColor=none;fillColor=#CDA2BE;" vertex="1" parent="D2Ym_hAoNKhn_BesaTCI-44">
          <mxGeometry x="18.076923076923077" y="60.62142857142854" width="5.384615384615384" height="6.857142857142854" as="geometry" />
        </mxCell>
        <mxCell id="D2Ym_hAoNKhn_BesaTCI-49" value="" style="rounded=0;whiteSpace=wrap;html=1;fontSize=22;strokeColor=none;fillColor=#E6D0DE;" vertex="1" parent="D2Ym_hAoNKhn_BesaTCI-44">
          <mxGeometry x="18.076923076923077" y="67.4785714285714" width="5.384615384615384" height="6.857142857142854" as="geometry" />
        </mxCell>
        <mxCell id="D2Ym_hAoNKhn_BesaTCI-50" value="" style="rounded=0;whiteSpace=wrap;html=1;fontSize=22;strokeColor=none;fillColor=#CDA2BE;" vertex="1" parent="D2Ym_hAoNKhn_BesaTCI-44">
          <mxGeometry x="18.076923076923077" y="74.33571428571426" width="5.384615384615384" height="6.857142857142854" as="geometry" />
        </mxCell>
        <mxCell id="D2Ym_hAoNKhn_BesaTCI-51" value="" style="rounded=0;whiteSpace=wrap;html=1;fontSize=22;strokeColor=none;fillColor=#E6D0DE;" vertex="1" parent="D2Ym_hAoNKhn_BesaTCI-44">
          <mxGeometry x="18.076923076923077" y="81.1928571428571" width="5.384615384615384" height="6.857142857142854" as="geometry" />
        </mxCell>
        <mxCell id="D2Ym_hAoNKhn_BesaTCI-52" value="" style="rounded=0;whiteSpace=wrap;html=1;fontSize=22;strokeColor=none;fillColor=#FFB570;" vertex="1" parent="D2Ym_hAoNKhn_BesaTCI-44">
          <mxGeometry x="29.996153846153845" y="60.62142857142854" width="5.384615384615384" height="6.857142857142854" as="geometry" />
        </mxCell>
        <mxCell id="D2Ym_hAoNKhn_BesaTCI-53" value="" style="rounded=0;whiteSpace=wrap;html=1;fontSize=22;strokeColor=none;fillColor=#FFCE9F;" vertex="1" parent="D2Ym_hAoNKhn_BesaTCI-44">
          <mxGeometry x="29.996153846153845" y="67.4785714285714" width="5.384615384615384" height="6.857142857142854" as="geometry" />
        </mxCell>
        <mxCell id="D2Ym_hAoNKhn_BesaTCI-54" value="" style="rounded=0;whiteSpace=wrap;html=1;fontSize=22;strokeColor=none;fillColor=#FFB570;" vertex="1" parent="D2Ym_hAoNKhn_BesaTCI-44">
          <mxGeometry x="29.996153846153845" y="74.33571428571426" width="5.384615384615384" height="10.28571428571428" as="geometry" />
        </mxCell>
        <mxCell id="D2Ym_hAoNKhn_BesaTCI-55" value="" style="rounded=0;whiteSpace=wrap;html=1;fontSize=22;strokeColor=none;fillColor=#FFCE9F;" vertex="1" parent="D2Ym_hAoNKhn_BesaTCI-44">
          <mxGeometry x="29.996153846153845" y="81.1928571428571" width="5.384615384615384" height="6.857142857142854" as="geometry" />
        </mxCell>
        <mxCell id="D2Ym_hAoNKhn_BesaTCI-56" value="" style="ellipse;whiteSpace=wrap;html=1;aspect=fixed;fontSize=11;strokeColor=#000000;fillColor=none;" vertex="1" parent="D2Ym_hAoNKhn_BesaTCI-44">
          <mxGeometry x="18.076923076923077" y="105.1928571428571" width="4.615384615384613" height="4.615384615384613" as="geometry" />
        </mxCell>
        <mxCell id="D2Ym_hAoNKhn_BesaTCI-57" value="" style="ellipse;whiteSpace=wrap;html=1;aspect=fixed;fontSize=11;strokeColor=#000000;fillColor=none;" vertex="1" parent="D2Ym_hAoNKhn_BesaTCI-44">
          <mxGeometry x="29.996153846153845" y="105.1928571428571" width="4.615384615384613" height="4.615384615384613" as="geometry" />
        </mxCell>
        <mxCell id="D2Ym_hAoNKhn_BesaTCI-58" value="" style="endArrow=classic;html=1;rounded=0;fontSize=11;exitX=0.5;exitY=0;exitDx=0;exitDy=0;entryX=0.5;entryY=1;entryDx=0;entryDy=0;" edge="1" parent="D2Ym_hAoNKhn_BesaTCI-44" source="D2Ym_hAoNKhn_BesaTCI-56" target="D2Ym_hAoNKhn_BesaTCI-51">
          <mxGeometry width="50" height="50" relative="1" as="geometry">
            <mxPoint x="-313.07692307692304" y="-169.09285714285704" as="sourcePoint" />
            <mxPoint x="-286.15384615384613" y="-203.37857142857132" as="targetPoint" />
          </mxGeometry>
        </mxCell>
        <mxCell id="D2Ym_hAoNKhn_BesaTCI-59" value="" style="endArrow=classic;html=1;rounded=0;fontSize=11;exitX=0.5;exitY=0;exitDx=0;exitDy=0;entryX=0.5;entryY=1;entryDx=0;entryDy=0;" edge="1" parent="D2Ym_hAoNKhn_BesaTCI-44" source="D2Ym_hAoNKhn_BesaTCI-57" target="D2Ym_hAoNKhn_BesaTCI-55">
          <mxGeometry width="50" height="50" relative="1" as="geometry">
            <mxPoint x="-282.4084615384616" y="-107.37857142857138" as="sourcePoint" />
            <mxPoint x="-282.4084615384616" y="-124.52142857142849" as="targetPoint" />
          </mxGeometry>
        </mxCell>
        <mxCell id="D2Ym_hAoNKhn_BesaTCI-60" value="&lt;font style=&quot;font-size: 9px;&quot; face=&quot;Georgia&quot;&gt;&lt;i&gt;Item &lt;sub&gt;u2&lt;/sub&gt;&lt;/i&gt;&lt;/font&gt;" style="text;html=1;strokeColor=none;fillColor=none;align=center;verticalAlign=middle;whiteSpace=wrap;rounded=0;fontSize=11;" vertex="1" parent="D2Ym_hAoNKhn_BesaTCI-44">
          <mxGeometry x="-5.309999999999999" y="105.18999999999997" width="60" height="20.56999999999999" as="geometry" />
        </mxCell>
        <mxCell id="D2Ym_hAoNKhn_BesaTCI-138" value="" style="endArrow=classic;html=1;rounded=0;fontSize=11;edgeStyle=orthogonalEdgeStyle;strokeColor=#FF8000;entryX=0.595;entryY=1.032;entryDx=0;entryDy=0;entryPerimeter=0;" edge="1" parent="D2Ym_hAoNKhn_BesaTCI-44" target="D2Ym_hAoNKhn_BesaTCI-130">
          <mxGeometry width="50" height="50" relative="1" as="geometry">
            <mxPoint x="216" y="-66.82999999999993" as="sourcePoint" />
            <mxPoint x="-33.05999999999972" y="13.999999999999993" as="targetPoint" />
            <Array as="points">
              <mxPoint x="186" y="-67" />
              <mxPoint x="186" y="29" />
              <mxPoint x="-34" y="29" />
            </Array>
          </mxGeometry>
        </mxCell>
        <mxCell id="D2Ym_hAoNKhn_BesaTCI-61" value="&lt;font style=&quot;font-size: 10px;&quot;&gt;Activation&lt;br&gt;&lt;/font&gt;" style="rounded=1;whiteSpace=wrap;html=1;fontSize=11;strokeColor=#000000;fillColor=none;" vertex="1" parent="D2Ym_hAoNKhn_BesaTCI-31">
          <mxGeometry x="25.57999999999987" y="111.64999999999988" width="57.92" height="9.999999999999996" as="geometry" />
        </mxCell>
        <mxCell id="D2Ym_hAoNKhn_BesaTCI-62" style="edgeStyle=none;rounded=0;orthogonalLoop=1;jettySize=auto;html=1;exitX=0.5;exitY=0;exitDx=0;exitDy=0;fontFamily=Georgia;fontSize=10;" edge="1" parent="D2Ym_hAoNKhn_BesaTCI-31" source="D2Ym_hAoNKhn_BesaTCI-47">
          <mxGeometry relative="1" as="geometry">
            <mxPoint x="43.49999999999994" y="121.65000000000009" as="targetPoint" />
          </mxGeometry>
        </mxCell>
        <mxCell id="D2Ym_hAoNKhn_BesaTCI-63" style="edgeStyle=orthogonalEdgeStyle;rounded=0;orthogonalLoop=1;jettySize=auto;html=1;exitX=0;exitY=0.5;exitDx=0;exitDy=0;entryX=0.5;entryY=1;entryDx=0;entryDy=0;fontFamily=Georgia;fontSize=11;" edge="1" parent="D2Ym_hAoNKhn_BesaTCI-31" source="D2Ym_hAoNKhn_BesaTCI-47" target="D2Ym_hAoNKhn_BesaTCI-65">
          <mxGeometry relative="1" as="geometry">
            <Array as="points">
              <mxPoint x="18.499999999999943" y="152.81999999999994" />
              <mxPoint x="18.499999999999943" y="105.81999999999995" />
            </Array>
            <mxPoint x="13.499999999999945" y="106.64999999999988" as="targetPoint" />
          </mxGeometry>
        </mxCell>
        <mxCell id="D2Ym_hAoNKhn_BesaTCI-64" value="" style="endArrow=classic;html=1;rounded=0;fontFamily=Georgia;fontSize=11;strokeColor=#FF8000;entryX=0.822;entryY=1.044;entryDx=0;entryDy=0;entryPerimeter=0;" edge="1" parent="D2Ym_hAoNKhn_BesaTCI-31" target="D2Ym_hAoNKhn_BesaTCI-61">
          <mxGeometry width="50" height="50" relative="1" as="geometry">
            <mxPoint x="73.5" y="140.82" as="sourcePoint" />
            <mxPoint x="104.49999999999994" y="131.64999999999986" as="targetPoint" />
          </mxGeometry>
        </mxCell>
        <mxCell id="D2Ym_hAoNKhn_BesaTCI-65" value="" style="shape=sumEllipse;perimeter=ellipsePerimeter;whiteSpace=wrap;html=1;backgroundOutline=1;" vertex="1" parent="D2Ym_hAoNKhn_BesaTCI-31">
          <mxGeometry x="14.329999999999986" y="95.81999999999995" width="10" height="9.999999999999996" as="geometry" />
        </mxCell>
        <mxCell id="D2Ym_hAoNKhn_BesaTCI-66" style="edgeStyle=orthogonalEdgeStyle;rounded=0;orthogonalLoop=1;jettySize=auto;html=1;exitX=0.5;exitY=0;exitDx=0;exitDy=0;entryX=1;entryY=0.5;entryDx=0;entryDy=0;fontFamily=Georgia;fontSize=11;" edge="1" parent="D2Ym_hAoNKhn_BesaTCI-31" source="D2Ym_hAoNKhn_BesaTCI-61" target="D2Ym_hAoNKhn_BesaTCI-65">
          <mxGeometry relative="1" as="geometry">
            <Array as="points">
              <mxPoint x="54.49999999999994" y="100.81999999999995" />
            </Array>
            <mxPoint x="18.499999999999943" y="101.64999999999988" as="targetPoint" />
          </mxGeometry>
        </mxCell>
        <mxCell id="D2Ym_hAoNKhn_BesaTCI-67" value="&lt;span style=&quot;color: rgb(255, 128, 0); font-family: Helvetica; font-size: 12px;&quot;&gt;用户—券核销店铺&amp;nbsp;&lt;/span&gt;&lt;b style=&quot;color: rgb(255, 128, 0); font-family: Helvetica; font-size: 12px;&quot;&gt;User-Shop&lt;/b&gt;&lt;span style=&quot;color: rgb(255, 128, 0); font-family: Helvetica; font-size: 12px;&quot;&gt;&amp;nbsp;序列&lt;/span&gt;" style="text;html=1;strokeColor=none;fillColor=none;align=center;verticalAlign=middle;whiteSpace=wrap;rounded=0;dashed=1;fontFamily=Georgia;fontSize=22;" vertex="1" parent="D2Ym_hAoNKhn_BesaTCI-31">
          <mxGeometry x="-73.46" y="240.82" width="256" height="29.999999999999986" as="geometry" />
        </mxCell>
        <mxCell id="D2Ym_hAoNKhn_BesaTCI-68" value="&lt;font style=&quot;font-size: 11px;&quot;&gt;concat&lt;/font&gt;" style="rounded=1;whiteSpace=wrap;html=1;fontSize=11;strokeColor=#000000;fillColor=none;" vertex="1" parent="1">
          <mxGeometry x="1371.58" y="525.0000000000001" width="45" height="20" as="geometry" />
        </mxCell>
        <mxCell id="D2Ym_hAoNKhn_BesaTCI-69" value="" style="endArrow=classic;html=1;rounded=0;fontFamily=Georgia;fontSize=11;strokeColor=#FF8000;exitX=0;exitY=0;exitDx=0;exitDy=0;fillColor=#ffe6cc;entryX=0.912;entryY=1.061;entryDx=0;entryDy=0;entryPerimeter=0;" edge="1" parent="1" source="D2Ym_hAoNKhn_BesaTCI-98" target="D2Ym_hAoNKhn_BesaTCI-137">
          <mxGeometry width="50" height="50" relative="1" as="geometry">
            <mxPoint x="1561" y="390" as="sourcePoint" />
            <mxPoint x="1586" y="460" as="targetPoint" />
          </mxGeometry>
        </mxCell>
        <mxCell id="D2Ym_hAoNKhn_BesaTCI-70" value="" style="group" vertex="1" connectable="0" parent="1">
          <mxGeometry x="1497" y="500" width="80" height="120" as="geometry" />
        </mxCell>
        <mxCell id="D2Ym_hAoNKhn_BesaTCI-71" value="" style="group" vertex="1" connectable="0" parent="D2Ym_hAoNKhn_BesaTCI-70">
          <mxGeometry x="-30.307692307692307" y="100.83000000000001" width="40" height="44.57142857142857" as="geometry" />
        </mxCell>
        <mxCell id="D2Ym_hAoNKhn_BesaTCI-72" value="" style="shape=curlyBracket;whiteSpace=wrap;html=1;rounded=1;flipH=1;fontSize=22;strokeColor=#000000;fillColor=#000000;rotation=-90;size=0.5;" vertex="1" parent="D2Ym_hAoNKhn_BesaTCI-71">
          <mxGeometry x="18.076923076923077" y="36.62142857142857" width="10.769230769230768" height="34.285714285714285" as="geometry" />
        </mxCell>
        <mxCell id="D2Ym_hAoNKhn_BesaTCI-73" value="&lt;font style=&quot;font-size: 11px;&quot;&gt;concat&lt;/font&gt;" style="rounded=1;whiteSpace=wrap;html=1;fontSize=11;strokeColor=#000000;fillColor=none;" vertex="1" parent="D2Ym_hAoNKhn_BesaTCI-71">
          <mxGeometry x="4.14" y="36.05" width="38.65" height="10.43" as="geometry" />
        </mxCell>
        <mxCell id="D2Ym_hAoNKhn_BesaTCI-74" value="" style="rounded=0;whiteSpace=wrap;html=1;fontSize=22;strokeColor=none;fillColor=#CDA2BE;" vertex="1" parent="D2Ym_hAoNKhn_BesaTCI-70">
          <mxGeometry x="-14.92307692307692" y="161.45142857142858" width="5.384615384615384" height="6.857142857142857" as="geometry" />
        </mxCell>
        <mxCell id="D2Ym_hAoNKhn_BesaTCI-75" value="" style="rounded=0;whiteSpace=wrap;html=1;fontSize=22;strokeColor=none;fillColor=#E6D0DE;" vertex="1" parent="D2Ym_hAoNKhn_BesaTCI-70">
          <mxGeometry x="-14.92307692307692" y="168.30857142857144" width="5.384615384615384" height="6.857142857142857" as="geometry" />
        </mxCell>
        <mxCell id="D2Ym_hAoNKhn_BesaTCI-76" value="" style="rounded=0;whiteSpace=wrap;html=1;fontSize=22;strokeColor=none;fillColor=#CDA2BE;" vertex="1" parent="D2Ym_hAoNKhn_BesaTCI-70">
          <mxGeometry x="-14.92307692307692" y="175.1657142857143" width="5.384615384615384" height="6.857142857142857" as="geometry" />
        </mxCell>
        <mxCell id="D2Ym_hAoNKhn_BesaTCI-77" value="" style="rounded=0;whiteSpace=wrap;html=1;fontSize=22;strokeColor=none;fillColor=#E6D0DE;" vertex="1" parent="D2Ym_hAoNKhn_BesaTCI-70">
          <mxGeometry x="-14.92307692307692" y="182.02285714285716" width="5.384615384615384" height="6.857142857142857" as="geometry" />
        </mxCell>
        <mxCell id="D2Ym_hAoNKhn_BesaTCI-78" value="" style="rounded=0;whiteSpace=wrap;html=1;fontSize=22;strokeColor=none;fillColor=#FFB570;" vertex="1" parent="D2Ym_hAoNKhn_BesaTCI-70">
          <mxGeometry x="-3.0038461538461547" y="161.45142857142858" width="5.384615384615384" height="6.857142857142857" as="geometry" />
        </mxCell>
        <mxCell id="D2Ym_hAoNKhn_BesaTCI-79" value="" style="rounded=0;whiteSpace=wrap;html=1;fontSize=22;strokeColor=none;fillColor=#FFCE9F;" vertex="1" parent="D2Ym_hAoNKhn_BesaTCI-70">
          <mxGeometry x="-3.0038461538461547" y="168.30857142857144" width="5.384615384615384" height="6.857142857142857" as="geometry" />
        </mxCell>
        <mxCell id="D2Ym_hAoNKhn_BesaTCI-80" value="" style="rounded=0;whiteSpace=wrap;html=1;fontSize=22;strokeColor=none;fillColor=#FFB570;" vertex="1" parent="D2Ym_hAoNKhn_BesaTCI-70">
          <mxGeometry x="-3.0038461538461547" y="175.1657142857143" width="5.384615384615384" height="10.285714285714285" as="geometry" />
        </mxCell>
        <mxCell id="D2Ym_hAoNKhn_BesaTCI-81" value="" style="rounded=0;whiteSpace=wrap;html=1;fontSize=22;strokeColor=none;fillColor=#FFCE9F;" vertex="1" parent="D2Ym_hAoNKhn_BesaTCI-70">
          <mxGeometry x="-3.0038461538461547" y="182.02285714285716" width="5.384615384615384" height="6.857142857142857" as="geometry" />
        </mxCell>
        <mxCell id="D2Ym_hAoNKhn_BesaTCI-82" value="" style="ellipse;whiteSpace=wrap;html=1;aspect=fixed;fontSize=11;strokeColor=#000000;fillColor=none;" vertex="1" parent="D2Ym_hAoNKhn_BesaTCI-70">
          <mxGeometry x="-14.92307692307692" y="206.02285714285716" width="4.615384615384615" height="4.615384615384615" as="geometry" />
        </mxCell>
        <mxCell id="D2Ym_hAoNKhn_BesaTCI-83" value="" style="ellipse;whiteSpace=wrap;html=1;aspect=fixed;fontSize=11;strokeColor=#000000;fillColor=none;" vertex="1" parent="D2Ym_hAoNKhn_BesaTCI-70">
          <mxGeometry x="-3.0038461538461547" y="206.02285714285716" width="4.615384615384615" height="4.615384615384615" as="geometry" />
        </mxCell>
        <mxCell id="D2Ym_hAoNKhn_BesaTCI-84" value="" style="endArrow=classic;html=1;rounded=0;fontSize=11;exitX=0.5;exitY=0;exitDx=0;exitDy=0;entryX=0.5;entryY=1;entryDx=0;entryDy=0;" edge="1" parent="D2Ym_hAoNKhn_BesaTCI-70" source="D2Ym_hAoNKhn_BesaTCI-82" target="D2Ym_hAoNKhn_BesaTCI-77">
          <mxGeometry width="50" height="50" relative="1" as="geometry">
            <mxPoint x="-346.07692307692304" y="-68.26285714285711" as="sourcePoint" />
            <mxPoint x="-319.15384615384613" y="-102.54857142857139" as="targetPoint" />
          </mxGeometry>
        </mxCell>
        <mxCell id="D2Ym_hAoNKhn_BesaTCI-85" value="" style="endArrow=classic;html=1;rounded=0;fontSize=11;exitX=0.5;exitY=0;exitDx=0;exitDy=0;entryX=0.5;entryY=1;entryDx=0;entryDy=0;" edge="1" parent="D2Ym_hAoNKhn_BesaTCI-70" source="D2Ym_hAoNKhn_BesaTCI-83" target="D2Ym_hAoNKhn_BesaTCI-81">
          <mxGeometry width="50" height="50" relative="1" as="geometry">
            <mxPoint x="-315.4084615384616" y="-6.548571428571407" as="sourcePoint" />
            <mxPoint x="-315.4084615384616" y="-23.69142857142853" as="targetPoint" />
          </mxGeometry>
        </mxCell>
        <mxCell id="D2Ym_hAoNKhn_BesaTCI-86" value="&lt;font style=&quot;font-size: 9px;&quot; face=&quot;Georgia&quot;&gt;&lt;i&gt;Item &lt;sub&gt;uN&lt;/sub&gt;&lt;/i&gt;&lt;/font&gt;" style="text;html=1;strokeColor=none;fillColor=none;align=center;verticalAlign=middle;whiteSpace=wrap;rounded=0;fontSize=11;" vertex="1" parent="D2Ym_hAoNKhn_BesaTCI-70">
          <mxGeometry x="-38.31" y="206.02000000000004" width="60" height="20.57" as="geometry" />
        </mxCell>
        <mxCell id="D2Ym_hAoNKhn_BesaTCI-87" style="edgeStyle=orthogonalEdgeStyle;rounded=0;orthogonalLoop=1;jettySize=auto;html=1;exitX=0.5;exitY=0;exitDx=0;exitDy=0;entryX=1;entryY=0.5;entryDx=0;entryDy=0;fontFamily=Georgia;fontSize=11;" edge="1" parent="1" source="D2Ym_hAoNKhn_BesaTCI-88" target="D2Ym_hAoNKhn_BesaTCI-40">
          <mxGeometry relative="1" as="geometry">
            <Array as="points">
              <mxPoint x="1501" y="590" />
            </Array>
            <mxPoint x="1465" y="590.8299999999999" as="targetPoint" />
          </mxGeometry>
        </mxCell>
        <mxCell id="D2Ym_hAoNKhn_BesaTCI-88" value="&lt;font style=&quot;font-size: 10px;&quot;&gt;Activation&lt;br&gt;&lt;/font&gt;" style="rounded=1;whiteSpace=wrap;html=1;fontSize=11;strokeColor=#000000;fillColor=none;" vertex="1" parent="1">
          <mxGeometry x="1472.08" y="600.8299999999999" width="57.92" height="10" as="geometry" />
        </mxCell>
        <mxCell id="D2Ym_hAoNKhn_BesaTCI-89" style="edgeStyle=none;rounded=0;orthogonalLoop=1;jettySize=auto;html=1;exitX=0.5;exitY=0;exitDx=0;exitDy=0;fontFamily=Georgia;fontSize=10;" edge="1" parent="1" source="D2Ym_hAoNKhn_BesaTCI-73">
          <mxGeometry relative="1" as="geometry">
            <mxPoint x="1490" y="610.8300000000002" as="targetPoint" />
          </mxGeometry>
        </mxCell>
        <mxCell id="D2Ym_hAoNKhn_BesaTCI-90" style="edgeStyle=orthogonalEdgeStyle;rounded=0;orthogonalLoop=1;jettySize=auto;html=1;exitX=0;exitY=0.5;exitDx=0;exitDy=0;entryX=0.5;entryY=1;entryDx=0;entryDy=0;fontFamily=Georgia;fontSize=11;" edge="1" parent="1" source="D2Ym_hAoNKhn_BesaTCI-73" target="D2Ym_hAoNKhn_BesaTCI-40">
          <mxGeometry relative="1" as="geometry">
            <Array as="points">
              <mxPoint x="1467" y="642" />
              <mxPoint x="1467" y="610" />
            </Array>
            <mxPoint x="1460" y="595.8299999999999" as="targetPoint" />
          </mxGeometry>
        </mxCell>
        <mxCell id="D2Ym_hAoNKhn_BesaTCI-91" value="" style="endArrow=classic;html=1;rounded=0;fontFamily=Georgia;fontSize=11;strokeColor=#FF8000;entryX=0.75;entryY=1;entryDx=0;entryDy=0;" edge="1" parent="1" target="D2Ym_hAoNKhn_BesaTCI-88">
          <mxGeometry width="50" height="50" relative="1" as="geometry">
            <mxPoint x="1516" y="630" as="sourcePoint" />
            <mxPoint x="1551" y="620.8299999999999" as="targetPoint" />
          </mxGeometry>
        </mxCell>
        <mxCell id="D2Ym_hAoNKhn_BesaTCI-92" value="" style="shape=curlyBracket;whiteSpace=wrap;html=1;rounded=1;flipH=1;fontSize=22;strokeColor=#000000;fillColor=#000000;rotation=-90;size=0.5;" vertex="1" parent="1">
          <mxGeometry x="1573" y="608.8800000000001" width="20" height="50" as="geometry" />
        </mxCell>
        <mxCell id="D2Ym_hAoNKhn_BesaTCI-93" value="&lt;font style=&quot;font-size: 11px;&quot;&gt;concat&lt;/font&gt;" style="rounded=1;whiteSpace=wrap;html=1;fontSize=11;strokeColor=#000000;fillColor=none;" vertex="1" parent="1">
          <mxGeometry x="1560.5" y="598.8800000000001" width="45" height="20" as="geometry" />
        </mxCell>
        <mxCell id="D2Ym_hAoNKhn_BesaTCI-94" value="" style="group" vertex="1" connectable="0" parent="1">
          <mxGeometry x="1563" y="579.0000000000001" width="40" height="10" as="geometry" />
        </mxCell>
        <mxCell id="D2Ym_hAoNKhn_BesaTCI-95" value="" style="rounded=0;whiteSpace=wrap;html=1;fontSize=22;strokeColor=none;fillColor=#CDA2BE;" vertex="1" parent="D2Ym_hAoNKhn_BesaTCI-94">
          <mxGeometry width="10" height="10" as="geometry" />
        </mxCell>
        <mxCell id="D2Ym_hAoNKhn_BesaTCI-96" style="edgeStyle=none;rounded=0;orthogonalLoop=1;jettySize=auto;html=1;exitX=1;exitY=1;exitDx=0;exitDy=0;fontSize=22;strokeColor=none;" edge="1" parent="D2Ym_hAoNKhn_BesaTCI-94" source="D2Ym_hAoNKhn_BesaTCI-95" target="D2Ym_hAoNKhn_BesaTCI-95">
          <mxGeometry relative="1" as="geometry" />
        </mxCell>
        <mxCell id="D2Ym_hAoNKhn_BesaTCI-97" value="" style="rounded=0;whiteSpace=wrap;html=1;fontSize=22;strokeColor=none;fillColor=#FFCE9F;" vertex="1" parent="D2Ym_hAoNKhn_BesaTCI-94">
          <mxGeometry x="10" width="10" height="10" as="geometry" />
        </mxCell>
        <mxCell id="D2Ym_hAoNKhn_BesaTCI-98" value="" style="rounded=0;whiteSpace=wrap;html=1;fontSize=22;strokeColor=none;fillColor=#CDA2BE;" vertex="1" parent="D2Ym_hAoNKhn_BesaTCI-94">
          <mxGeometry x="20" width="10" height="10" as="geometry" />
        </mxCell>
        <mxCell id="D2Ym_hAoNKhn_BesaTCI-99" value="" style="rounded=0;whiteSpace=wrap;html=1;fontSize=22;strokeColor=none;fillColor=#FFCE9F;" vertex="1" parent="D2Ym_hAoNKhn_BesaTCI-94">
          <mxGeometry x="30" width="10" height="10" as="geometry" />
        </mxCell>
        <mxCell id="D2Ym_hAoNKhn_BesaTCI-100" value="" style="rounded=0;whiteSpace=wrap;html=1;fontSize=22;strokeColor=none;fillColor=#CDA2BE;" vertex="1" parent="1">
          <mxGeometry x="1568" y="643.8800000000001" width="10" height="10" as="geometry" />
        </mxCell>
        <mxCell id="D2Ym_hAoNKhn_BesaTCI-101" value="" style="rounded=0;whiteSpace=wrap;html=1;fontSize=22;strokeColor=none;fillColor=#E6D0DE;" vertex="1" parent="1">
          <mxGeometry x="1568" y="653.8800000000001" width="10" height="10" as="geometry" />
        </mxCell>
        <mxCell id="D2Ym_hAoNKhn_BesaTCI-102" value="" style="rounded=0;whiteSpace=wrap;html=1;fontSize=22;strokeColor=none;fillColor=#CDA2BE;" vertex="1" parent="1">
          <mxGeometry x="1568" y="663.8800000000001" width="10" height="10" as="geometry" />
        </mxCell>
        <mxCell id="D2Ym_hAoNKhn_BesaTCI-103" value="" style="rounded=0;whiteSpace=wrap;html=1;fontSize=22;strokeColor=none;fillColor=#E6D0DE;" vertex="1" parent="1">
          <mxGeometry x="1568" y="673.8800000000001" width="10" height="10" as="geometry" />
        </mxCell>
        <mxCell id="D2Ym_hAoNKhn_BesaTCI-104" value="" style="rounded=0;whiteSpace=wrap;html=1;fontSize=22;strokeColor=none;fillColor=#FFB570;" vertex="1" parent="1">
          <mxGeometry x="1588" y="643.8800000000001" width="10" height="10" as="geometry" />
        </mxCell>
        <mxCell id="D2Ym_hAoNKhn_BesaTCI-105" value="" style="rounded=0;whiteSpace=wrap;html=1;fontSize=22;strokeColor=none;fillColor=#FFCE9F;" vertex="1" parent="1">
          <mxGeometry x="1588" y="653.8800000000001" width="10" height="10" as="geometry" />
        </mxCell>
        <mxCell id="D2Ym_hAoNKhn_BesaTCI-106" value="" style="rounded=0;whiteSpace=wrap;html=1;fontSize=22;strokeColor=none;fillColor=#FFB570;" vertex="1" parent="1">
          <mxGeometry x="1588" y="663.8800000000001" width="10" height="15" as="geometry" />
        </mxCell>
        <mxCell id="D2Ym_hAoNKhn_BesaTCI-107" value="" style="rounded=0;whiteSpace=wrap;html=1;fontSize=22;strokeColor=none;fillColor=#FFCE9F;" vertex="1" parent="1">
          <mxGeometry x="1588" y="673.8800000000001" width="10" height="10" as="geometry" />
        </mxCell>
        <mxCell id="D2Ym_hAoNKhn_BesaTCI-108" value="" style="ellipse;whiteSpace=wrap;html=1;aspect=fixed;fontSize=11;strokeColor=#000000;fillColor=none;" vertex="1" parent="1">
          <mxGeometry x="1568" y="708.8800000000001" width="10" height="10" as="geometry" />
        </mxCell>
        <mxCell id="D2Ym_hAoNKhn_BesaTCI-109" value="" style="ellipse;whiteSpace=wrap;html=1;aspect=fixed;fontSize=11;strokeColor=#000000;fillColor=none;" vertex="1" parent="1">
          <mxGeometry x="1588" y="708.8800000000001" width="10" height="10" as="geometry" />
        </mxCell>
        <mxCell id="D2Ym_hAoNKhn_BesaTCI-110" value="" style="endArrow=classic;html=1;rounded=0;fontSize=11;exitX=0.5;exitY=0;exitDx=0;exitDy=0;entryX=0.5;entryY=1;entryDx=0;entryDy=0;" edge="1" parent="1" source="D2Ym_hAoNKhn_BesaTCI-108" target="D2Ym_hAoNKhn_BesaTCI-103">
          <mxGeometry width="50" height="50" relative="1" as="geometry">
            <mxPoint x="1538" y="618.8800000000001" as="sourcePoint" />
            <mxPoint x="1588" y="568.8800000000001" as="targetPoint" />
          </mxGeometry>
        </mxCell>
        <mxCell id="D2Ym_hAoNKhn_BesaTCI-111" value="" style="endArrow=classic;html=1;rounded=0;fontSize=11;exitX=0.5;exitY=0;exitDx=0;exitDy=0;entryX=0.5;entryY=1;entryDx=0;entryDy=0;" edge="1" parent="1" source="D2Ym_hAoNKhn_BesaTCI-109" target="D2Ym_hAoNKhn_BesaTCI-107">
          <mxGeometry width="50" height="50" relative="1" as="geometry">
            <mxPoint x="1592.82" y="708.8800000000001" as="sourcePoint" />
            <mxPoint x="1592.82" y="683.8800000000001" as="targetPoint" />
          </mxGeometry>
        </mxCell>
        <mxCell id="D2Ym_hAoNKhn_BesaTCI-112" value="Item&lt;br&gt;Features" style="text;html=1;strokeColor=none;fillColor=none;align=center;verticalAlign=middle;whiteSpace=wrap;rounded=0;fontSize=11;" vertex="1" parent="1">
          <mxGeometry x="1553" y="723.8800000000001" width="65" height="30" as="geometry" />
        </mxCell>
        <mxCell id="D2Ym_hAoNKhn_BesaTCI-113" value="" style="group" vertex="1" connectable="0" parent="1">
          <mxGeometry x="1293.0023076923076" y="600.8299999999999" width="40" height="44.57142857142857" as="geometry" />
        </mxCell>
        <mxCell id="D2Ym_hAoNKhn_BesaTCI-114" value="" style="shape=curlyBracket;whiteSpace=wrap;html=1;rounded=1;flipH=1;fontSize=22;strokeColor=#000000;fillColor=#000000;rotation=-90;size=0.5;" vertex="1" parent="D2Ym_hAoNKhn_BesaTCI-113">
          <mxGeometry x="18.076923076923077" y="36.62142857142857" width="10.769230769230768" height="34.285714285714285" as="geometry" />
        </mxCell>
        <mxCell id="D2Ym_hAoNKhn_BesaTCI-115" value="&lt;font style=&quot;font-size: 11px;&quot;&gt;concat&lt;/font&gt;" style="rounded=1;whiteSpace=wrap;html=1;fontSize=11;strokeColor=#000000;fillColor=none;" vertex="1" parent="D2Ym_hAoNKhn_BesaTCI-113">
          <mxGeometry x="4.14" y="36.05" width="38.65" height="10.43" as="geometry" />
        </mxCell>
        <mxCell id="D2Ym_hAoNKhn_BesaTCI-116" value="" style="rounded=0;whiteSpace=wrap;html=1;fontSize=22;strokeColor=none;fillColor=#CDA2BE;" vertex="1" parent="1">
          <mxGeometry x="1308.386923076923" y="661.4514285714286" width="5.384615384615384" height="6.857142857142857" as="geometry" />
        </mxCell>
        <mxCell id="D2Ym_hAoNKhn_BesaTCI-117" value="" style="rounded=0;whiteSpace=wrap;html=1;fontSize=22;strokeColor=none;fillColor=#E6D0DE;" vertex="1" parent="1">
          <mxGeometry x="1308.386923076923" y="668.3085714285713" width="5.384615384615384" height="6.857142857142857" as="geometry" />
        </mxCell>
        <mxCell id="D2Ym_hAoNKhn_BesaTCI-118" value="" style="rounded=0;whiteSpace=wrap;html=1;fontSize=22;strokeColor=none;fillColor=#CDA2BE;" vertex="1" parent="1">
          <mxGeometry x="1308.386923076923" y="675.1657142857142" width="5.384615384615384" height="6.857142857142857" as="geometry" />
        </mxCell>
        <mxCell id="D2Ym_hAoNKhn_BesaTCI-119" value="" style="rounded=0;whiteSpace=wrap;html=1;fontSize=22;strokeColor=none;fillColor=#E6D0DE;" vertex="1" parent="1">
          <mxGeometry x="1308.386923076923" y="682.0228571428571" width="5.384615384615384" height="6.857142857142857" as="geometry" />
        </mxCell>
        <mxCell id="D2Ym_hAoNKhn_BesaTCI-120" value="" style="rounded=0;whiteSpace=wrap;html=1;fontSize=22;strokeColor=none;fillColor=#FFB570;" vertex="1" parent="1">
          <mxGeometry x="1320.3061538461538" y="661.4514285714286" width="5.384615384615384" height="6.857142857142857" as="geometry" />
        </mxCell>
        <mxCell id="D2Ym_hAoNKhn_BesaTCI-121" value="" style="rounded=0;whiteSpace=wrap;html=1;fontSize=22;strokeColor=none;fillColor=#FFCE9F;" vertex="1" parent="1">
          <mxGeometry x="1320.3061538461538" y="668.3085714285713" width="5.384615384615384" height="6.857142857142857" as="geometry" />
        </mxCell>
        <mxCell id="D2Ym_hAoNKhn_BesaTCI-122" value="" style="rounded=0;whiteSpace=wrap;html=1;fontSize=22;strokeColor=none;fillColor=#FFB570;" vertex="1" parent="1">
          <mxGeometry x="1320.3061538461538" y="675.1657142857142" width="5.384615384615384" height="10.285714285714285" as="geometry" />
        </mxCell>
        <mxCell id="D2Ym_hAoNKhn_BesaTCI-123" value="" style="rounded=0;whiteSpace=wrap;html=1;fontSize=22;strokeColor=none;fillColor=#FFCE9F;" vertex="1" parent="1">
          <mxGeometry x="1320.3061538461538" y="682.0228571428571" width="5.384615384615384" height="6.857142857142857" as="geometry" />
        </mxCell>
        <mxCell id="D2Ym_hAoNKhn_BesaTCI-124" value="" style="ellipse;whiteSpace=wrap;html=1;aspect=fixed;fontSize=11;strokeColor=#000000;fillColor=none;" vertex="1" parent="1">
          <mxGeometry x="1308.386923076923" y="706.0228571428571" width="4.615384615384615" height="4.615384615384615" as="geometry" />
        </mxCell>
        <mxCell id="D2Ym_hAoNKhn_BesaTCI-125" value="" style="ellipse;whiteSpace=wrap;html=1;aspect=fixed;fontSize=11;strokeColor=#000000;fillColor=none;" vertex="1" parent="1">
          <mxGeometry x="1320.3061538461538" y="706.0228571428571" width="4.615384615384615" height="4.615384615384615" as="geometry" />
        </mxCell>
        <mxCell id="D2Ym_hAoNKhn_BesaTCI-126" value="" style="endArrow=classic;html=1;rounded=0;fontSize=11;exitX=0.5;exitY=0;exitDx=0;exitDy=0;entryX=0.5;entryY=1;entryDx=0;entryDy=0;" edge="1" parent="1" source="D2Ym_hAoNKhn_BesaTCI-124" target="D2Ym_hAoNKhn_BesaTCI-119">
          <mxGeometry width="50" height="50" relative="1" as="geometry">
            <mxPoint x="977.2330769230771" y="431.73714285714277" as="sourcePoint" />
            <mxPoint x="1004.1561538461538" y="397.45142857142855" as="targetPoint" />
          </mxGeometry>
        </mxCell>
        <mxCell id="D2Ym_hAoNKhn_BesaTCI-127" value="" style="endArrow=classic;html=1;rounded=0;fontSize=11;exitX=0.5;exitY=0;exitDx=0;exitDy=0;entryX=0.5;entryY=1;entryDx=0;entryDy=0;" edge="1" parent="1" source="D2Ym_hAoNKhn_BesaTCI-125" target="D2Ym_hAoNKhn_BesaTCI-123">
          <mxGeometry width="50" height="50" relative="1" as="geometry">
            <mxPoint x="1007.9015384615384" y="493.4514285714285" as="sourcePoint" />
            <mxPoint x="1007.9015384615384" y="476.3085714285714" as="targetPoint" />
          </mxGeometry>
        </mxCell>
        <mxCell id="D2Ym_hAoNKhn_BesaTCI-128" value="&lt;font style=&quot;font-size: 9px;&quot; face=&quot;Georgia&quot;&gt;&lt;i&gt;Item &lt;sub&gt;u1&lt;/sub&gt;&lt;/i&gt;&lt;/font&gt;" style="text;html=1;strokeColor=none;fillColor=none;align=center;verticalAlign=middle;whiteSpace=wrap;rounded=0;fontSize=11;" vertex="1" parent="1">
          <mxGeometry x="1283" y="706.02" width="60" height="20.57" as="geometry" />
        </mxCell>
        <mxCell id="D2Ym_hAoNKhn_BesaTCI-129" style="edgeStyle=orthogonalEdgeStyle;rounded=0;orthogonalLoop=1;jettySize=auto;html=1;exitX=0.5;exitY=0;exitDx=0;exitDy=0;entryX=1;entryY=0.5;entryDx=0;entryDy=0;fontFamily=Georgia;fontSize=11;" edge="1" parent="1" source="D2Ym_hAoNKhn_BesaTCI-130" target="D2Ym_hAoNKhn_BesaTCI-133">
          <mxGeometry relative="1" as="geometry">
            <Array as="points">
              <mxPoint x="1327.31" y="590" />
            </Array>
            <mxPoint x="1291.310000000099" y="590.8299999999999" as="targetPoint" />
          </mxGeometry>
        </mxCell>
        <mxCell id="D2Ym_hAoNKhn_BesaTCI-130" value="&lt;font style=&quot;font-size: 10px;&quot;&gt;Activation&lt;br&gt;&lt;/font&gt;" style="rounded=1;whiteSpace=wrap;html=1;fontSize=11;strokeColor=#000000;fillColor=none;" vertex="1" parent="1">
          <mxGeometry x="1298.3899999999999" y="600.8299999999999" width="57.92" height="10" as="geometry" />
        </mxCell>
        <mxCell id="D2Ym_hAoNKhn_BesaTCI-131" style="edgeStyle=none;rounded=0;orthogonalLoop=1;jettySize=auto;html=1;exitX=0.5;exitY=0;exitDx=0;exitDy=0;fontFamily=Georgia;fontSize=10;" edge="1" parent="1" source="D2Ym_hAoNKhn_BesaTCI-115">
          <mxGeometry relative="1" as="geometry">
            <mxPoint x="1316.31" y="610.8300000000002" as="targetPoint" />
          </mxGeometry>
        </mxCell>
        <mxCell id="D2Ym_hAoNKhn_BesaTCI-132" style="edgeStyle=orthogonalEdgeStyle;rounded=0;orthogonalLoop=1;jettySize=auto;html=1;exitX=0;exitY=0.5;exitDx=0;exitDy=0;entryX=0.5;entryY=1;entryDx=0;entryDy=0;fontFamily=Georgia;fontSize=11;" edge="1" parent="1" source="D2Ym_hAoNKhn_BesaTCI-115" target="D2Ym_hAoNKhn_BesaTCI-133">
          <mxGeometry relative="1" as="geometry">
            <Array as="points">
              <mxPoint x="1293.31" y="642" />
              <mxPoint x="1293.31" y="595" />
            </Array>
            <mxPoint x="1286.31" y="595.8299999999999" as="targetPoint" />
          </mxGeometry>
        </mxCell>
        <mxCell id="D2Ym_hAoNKhn_BesaTCI-133" value="" style="shape=sumEllipse;perimeter=ellipsePerimeter;whiteSpace=wrap;html=1;backgroundOutline=1;" vertex="1" parent="1">
          <mxGeometry x="1288.3899999999999" y="585" width="10" height="10" as="geometry" />
        </mxCell>
        <mxCell id="D2Ym_hAoNKhn_BesaTCI-134" value="" style="endArrow=classic;html=1;rounded=0;fontFamily=Georgia;fontSize=11;strokeColor=#000000;exitX=0.5;exitY=0;exitDx=0;exitDy=0;entryX=0.547;entryY=0.143;entryDx=0;entryDy=0;entryPerimeter=0;" edge="1" parent="1">
          <mxGeometry width="50" height="50" relative="1" as="geometry">
            <mxPoint x="1293.52" y="585" as="sourcePoint" />
            <mxPoint x="1293.2599999999998" y="570.94" as="targetPoint" />
          </mxGeometry>
        </mxCell>
        <mxCell id="D2Ym_hAoNKhn_BesaTCI-135" value="" style="shape=curlyBracket;whiteSpace=wrap;html=1;rounded=1;flipH=1;fontSize=22;strokeColor=#000000;fillColor=#000000;rotation=-90;size=0.5;" vertex="1" parent="1">
          <mxGeometry x="1387" y="450" width="20" height="213.88" as="geometry" />
        </mxCell>
        <mxCell id="D2Ym_hAoNKhn_BesaTCI-136" style="rounded=0;orthogonalLoop=1;jettySize=auto;html=1;exitX=0;exitY=0;exitDx=0;exitDy=0;entryX=0.5;entryY=1;entryDx=0;entryDy=0;fontFamily=Times New Roman;fontColor=#FF0000;" edge="1" parent="1">
          <mxGeometry relative="1" as="geometry">
            <mxPoint x="1394.2399999999998" y="510" as="sourcePoint" />
            <mxPoint x="1393.6600000000003" y="455.15999999999985" as="targetPoint" />
          </mxGeometry>
        </mxCell>
        <mxCell id="D2Ym_hAoNKhn_BesaTCI-137" value="All Features Embedding" style="rounded=0;whiteSpace=wrap;html=1;fillColor=#fff2cc;strokeColor=#d6b656;gradientColor=#ffd966;" vertex="1" parent="1">
          <mxGeometry x="1273" y="430" width="340" height="20" as="geometry" />
        </mxCell>
        <mxCell id="K7jrmlSnKd5e08-iuxen-154" value="" style="endArrow=classic;html=1;rounded=0;fontFamily=Georgia;fontSize=11;strokeColor=#FF8000;exitX=0;exitY=0;exitDx=0;exitDy=0;fillColor=#ffe6cc;entryX=0.889;entryY=1.012;entryDx=0;entryDy=0;entryPerimeter=0;" parent="1" source="K7jrmlSnKd5e08-iuxen-139" target="K7jrmlSnKd5e08-iuxen-1" edge="1">
          <mxGeometry width="50" height="50" relative="1" as="geometry">
            <mxPoint x="1171" y="388.89" as="sourcePoint" />
            <mxPoint x="1048" y="451" as="targetPoint" />
          </mxGeometry>
        </mxCell>
      </root>
    </mxGraphModel>
  </diagram>
</mxfile>
